<svg width="115" height="115" viewBox="0 0 115 115" fill="none" xmlns="http://www.w3.org/2000/svg">
<path d="M0 22C0 9.84973 9.84973 0 22 0H93C105.15 0 115 9.84973 115 22V93C115 105.15 105.15 115 93 115H22C9.84973 115 0 105.15 0 93V22Z" fill="#0B0B0B"/>
<path d="M29 68.5C29 65.4624 31.4624 63 34.5 63C37.6886 63 40.2734 65.5849 40.2734 68.7734V87.0908C40.2734 90.9568 43.4074 94.0908 47.2734 94.0908H57C64.6969 94.0908 71.0761 92.6064 76.1367 89.6367C81.1973 86.667 84.9702 82.4389 87.4551 76.9541C89.9398 71.4693 91.1816 64.9389 91.1816 57.3633C91.1816 49.8482 89.9545 43.3783 87.5 37.9541C85.0455 32.4997 81.3787 28.3182 76.5 25.4092C71.6213 22.4699 65.5459 21.0001 58.2734 21H47.2734C43.4074 21 40.2734 24.134 40.2734 28V46.2266C40.2734 49.4151 37.6886 52 34.5 52C31.4624 52 29 49.5376 29 46.5V18C29 14.134 32.134 11 36 11H59C68.0301 11 75.7575 12.8637 82.1816 16.5908C88.6058 20.2877 93.5308 25.6056 96.9551 32.5449C100.379 39.4539 102.091 47.727 102.091 57.3633C102.091 67.0603 100.364 75.4092 96.9092 82.4092C93.4546 89.3788 88.4244 94.7425 81.8184 98.5C75.2123 102.227 67.182 104.091 57.7275 104.091H36C32.134 104.091 29 100.957 29 97.0908V68.5Z" fill="white"/>
<path d="M10 53H60V62H10V53Z" fill="#10B981"/>
</svg>
