<svg width="93" height="94" viewBox="0 0 93 94" fill="none" xmlns="http://www.w3.org/2000/svg">
<path d="M19 57.5C19 54.4624 21.4624 52 24.5 52C27.6886 52 30.2734 54.5849 30.2734 57.7734V76.0908C30.2734 79.9568 33.4074 83.0908 37.2734 83.0908H47C54.6969 83.0908 61.0761 81.6064 66.1367 78.6367C71.1973 75.667 74.9702 71.4389 77.4551 65.9541C79.9398 60.4693 81.1816 53.9389 81.1816 46.3633C81.1816 38.8482 79.9545 32.3783 77.5 26.9541C75.0455 21.4997 71.3787 17.3182 66.5 14.4092C61.6213 11.4699 55.5459 10.0001 48.2734 10H37.2734C33.4074 10 30.2734 13.134 30.2734 17V35.2266C30.2734 38.4151 27.6886 41 24.5 41C21.4624 41 19 38.5376 19 35.5V7C19 3.13401 22.134 0 26 0H49C58.0301 0 65.7575 1.86367 72.1816 5.59082C78.6058 9.28774 83.5308 14.6056 86.9551 21.5449C90.3793 28.4539 92.0908 36.727 92.0908 46.3633C92.0908 56.0603 90.3637 64.4092 86.9092 71.4092C83.4546 78.3788 78.4244 83.7425 71.8184 87.5C65.2123 91.2272 57.182 93.0908 47.7275 93.0908H26C22.134 93.0908 19 89.9568 19 86.0908V57.5Z" fill="#ffffff" fill-opacity="0.35"/>
<path d="M0 42H50V51H0V42Z" fill="#10B981"/>
</svg>