<?xml version="1.0" encoding="UTF-8"?>
<svg version="1.1" xmlns="http://www.w3.org/2000/svg" width="1200" height="630">
<path d="M0 0 C8.93192277 5.17494033 14.88441086 12.93251737 18.5 22.5625 C18.5 23.5525 18.5 24.5425 18.5 25.5625 C19.655 25.7275 20.81 25.8925 22 26.0625 C39.73325442 30.03430146 57.36928734 42.96736854 67.25 57.9375 C76.43977131 73.2325129 79.71336429 88.37656268 79.5625 106.0625 C79.55798828 107.07570313 79.55347656 108.08890625 79.54882812 109.1328125 C79.53714593 111.60943827 79.52076582 114.08593657 79.5 116.5625 C80.49257813 117.01238281 81.48515625 117.46226562 82.5078125 117.92578125 C104.25424511 128.09028482 118.72816435 142.23668909 127.81640625 164.8359375 C132.41788548 178.84880456 131.58637211 195.08594452 129.77734375 209.5703125 C129.43515462 213.01662351 129.37353004 214.28203426 130.828125 217.5078125 C131.46234375 218.22710937 132.0965625 218.94640625 132.75 219.6875 C139.94028113 228.87268947 140.54576359 238.19853566 139.5 249.5625 C137.59966223 256.93907995 133.17907372 262.89511316 126.9375 267.25 C119.69448385 271.42348514 112.30804282 272.75184161 104.04956055 272.35424805 C97.22394637 271.90054679 97.22394637 271.90054679 90.87109375 274.05078125 C89.43944413 275.40860731 88.05496092 276.81768669 86.71875 278.26953125 C75.47971799 289.8845168 57.23859486 295.69601852 41.4152832 295.99414062 C21.90269602 296.02824112 5.17841563 292.2184577 -10.61328125 280.19140625 C-13.31547549 278.25306089 -13.31547549 278.25306089 -15.9140625 279.04296875 C-16.76742187 279.54441406 -17.62078125 280.04585938 -18.5 280.5625 C-19.64210938 281.21863281 -20.78421875 281.87476563 -21.9609375 282.55078125 C-22.59032227 282.92525391 -23.21970703 283.29972656 -23.86816406 283.68554688 C-32.14781904 288.59290443 -40.23145144 291.95426523 -49.5 294.5625 C-50.11037109 294.73990723 -50.72074219 294.91731445 -51.34960938 295.10009766 C-65.69816386 298.185493 -82.15544875 296.39521777 -95.5 290.5625 C-96.11262695 290.30017578 -96.72525391 290.03785156 -97.35644531 289.76757812 C-105.78122646 286.09850895 -115.20994258 281.40540029 -120.7734375 273.828125 C-123.66583672 271.70790476 -127.00794256 272.39416439 -130.4375 272.5625 C-141.73922275 272.81391544 -151.7414441 271.2804354 -160.5 263.5625 C-167.77587462 255.72333186 -169.0750393 248.14375656 -168.8125 237.61328125 C-168.39535357 230.16895554 -166.05117831 224.18577376 -161.1875 218.5625 C-159.37990137 216.329531 -158.51355186 215.14014787 -158.4453125 212.23144531 C-158.56648438 211.37647461 -158.68765625 210.52150391 -158.8125 209.640625 C-161.65882571 185.59346121 -160.16724553 162.17848767 -144.74365234 142.46801758 C-134.72959884 130.35504989 -122.64034251 123.0608859 -108.5 116.5625 C-108.52320313 115.53253906 -108.54640625 114.50257813 -108.5703125 113.44140625 C-108.95616412 88.97319126 -105.49037987 66.54598001 -88.02294922 47.92993164 C-77.54641093 37.30841958 -64.76628233 29.97197617 -50.5 25.5625 C-49.51 25.5625 -48.52 25.5625 -47.5 25.5625 C-47.35304688 25.01722656 -47.20609375 24.47195312 -47.0546875 23.91015625 C-44.00707183 13.66386217 -38.66002614 6.21973214 -29.5 0.5625 C-20.18689106 -4.11607128 -9.48220061 -4.33747423 0 0 Z M-60.5 143.5625 C-60.31577211 146.69437413 -60.23445034 148.02466929 -58.5 150.5625 C-55.37283985 152.09904411 -52.18911705 153.14675325 -48.890625 154.265625 C-36.558756 158.98242282 -28.28186629 170.47582483 -22.9765625 182.08984375 C-18.34917895 192.97276432 -17.16786287 203.61054031 -19.13671875 215.36328125 C-19.89246738 218.65805492 -19.89246738 218.65805492 -17.5625 221 C-16.5415625 221.7734375 -16.5415625 221.7734375 -15.5 222.5625 C-13.08896173 221.59808469 -11.72595242 220.87452953 -10.1875 218.75 C-9.31475912 215.97309719 -9.92623151 214.41540445 -10.5 211.5625 C-11.71426349 194.86140057 -7.66787999 179.74976814 3.33984375 166.83032227 C11.08343819 158.15229477 19.21185526 153.30047553 30.5 150.5625 C30.83 148.2525 31.16 145.9425 31.5 143.5625 C28.13125168 141.82311799 28.13125168 141.82311799 24.5 141.5625 C22.09362046 143.29380741 20.13135769 145.30397849 18.0234375 147.38671875 C9.50995578 154.72729045 -2.80570753 156.95291116 -13.75 156.875 C-14.584104 156.86936035 -15.41820801 156.8637207 -16.27758789 156.85791016 C-28.66748095 156.61574679 -42.18648262 153.36466711 -51.125 144.1875 C-51.90875 143.32125 -52.6925 142.455 -53.5 141.5625 C-56.1465335 141.5625 -58.0808163 142.54389634 -60.5 143.5625 Z " fill="#8C822B" transform="translate(614.5,102.4375)"/>
<path d="M0 0 C19.26588339 5.22464634 34.60230361 19.25667321 44.81640625 35.97265625 C54.37730124 53.77652838 54.73968621 73.29254704 52.27734375 93.0078125 C51.93515462 96.45412351 51.87353004 97.71953426 53.328125 100.9453125 C53.96234375 101.66460937 54.5965625 102.38390625 55.25 103.125 C62.44028113 112.31018947 63.04576359 121.63603566 62 133 C60.09966223 140.37657995 55.67907372 146.33261316 49.4375 150.6875 C42.19448385 154.86098514 34.80804282 156.18934161 26.54956055 155.79174805 C19.72394637 155.33804679 19.72394637 155.33804679 13.37109375 157.48828125 C11.93944413 158.84610731 10.55496092 160.25518669 9.21875 161.70703125 C-2.02028201 173.3220168 -20.26140514 179.13351852 -36.0847168 179.43164062 C-57.01202979 179.46821352 -75.54845058 174.6427483 -92 161 C-92 160.34 -92 159.68 -92 159 C-92.55171875 158.75507813 -93.1034375 158.51015625 -93.671875 158.2578125 C-105.96756228 151.61484051 -115.43987847 139.72647918 -124 129 C-124.68191406 128.17371094 -125.36382813 127.34742188 -126.06640625 126.49609375 C-136.53437888 113.73377096 -136.53437888 113.73377096 -140 107 C-139.78637695 104.95629883 -139.78637695 104.95629883 -139 103 C-136.54147583 101.49557462 -134.22646839 100.26202178 -131.625 99.0625 C-130.54158325 98.54635132 -130.54158325 98.54635132 -129.4362793 98.01977539 C-127.97814294 97.32771534 -126.51712665 96.64168892 -125.05322266 95.96191406 C-123.24472376 95.11465061 -121.45467382 94.22824273 -119.66796875 93.3359375 C-118.25451172 92.64371094 -118.25451172 92.64371094 -116.8125 91.9375 C-115.99394531 91.53402344 -115.17539062 91.13054687 -114.33203125 90.71484375 C-111.39182168 89.81357348 -109.88856828 89.95254792 -107 91 C-104.97265625 92.890625 -104.97265625 92.890625 -103.0625 95.25 C-99.93697989 98.96859793 -96.8333465 102.02915646 -93 105 C-91.00016466 104.20882096 -91.00016466 104.20882096 -89 103 C-87.86183578 99.58550733 -88.2696327 98.44596115 -89 95 C-90.21164015 78.33498227 -86.18956225 63.21959026 -75.20996094 50.31835938 C-68.5593706 42.85445435 -60.86082823 36.554073 -51 34 C-48.625 34.375 -48.625 34.375 -47 35 C-47.46792969 36.33804688 -47.46792969 36.33804688 -47.9453125 37.703125 C-48.52925781 39.45882812 -48.52925781 39.45882812 -49.125 41.25 C-49.51945313 42.41015625 -49.91390625 43.5703125 -50.3203125 44.765625 C-51.08427583 48.4010367 -50.95190423 49.00127463 -49 52 C-47.06715242 53.77357738 -47.06715242 53.77357738 -44.75390625 55.3828125 C-43.49803711 56.29740234 -43.49803711 56.29740234 -42.21679688 57.23046875 C-41.34087891 57.85566406 -40.46496094 58.48085938 -39.5625 59.125 C-38.69044922 59.75792969 -37.81839844 60.39085937 -36.91992188 61.04296875 C-30.04808837 66.29461931 -30.04808837 66.29461931 -22 69 C-21.72285156 68.10925781 -21.44570313 67.21851563 -21.16015625 66.30078125 C-20.12651113 63.35993907 -18.93955976 60.90490156 -17.4375 58.1875 C-8.25599743 40.07264357 -2.33583189 20.14655004 0 0 Z " fill="#075A88" transform="translate(692,219)"/>
<path d="M0 0 C8.93192277 5.17494033 14.88441086 12.93251737 18.5 22.5625 C18.5 23.5525 18.5 24.5425 18.5 25.5625 C19.655 25.7275 20.81 25.8925 22 26.0625 C39.73325442 30.03430146 57.36928734 42.96736854 67.25 57.9375 C74.02858731 69.21945434 78.74326005 81.29729385 79.5 94.5625 C79.56445312 95.61953125 79.62890625 96.6765625 79.6953125 97.765625 C80.61086249 127.4294448 70.84321116 160.2229543 55.5 185.5625 C49.78581929 185.17387814 46.42334468 183.54339216 42.125 179.9375 C40.99748703 179.02723077 39.86988234 178.11707515 38.7421875 177.20703125 C38.19530273 176.7579541 37.64841797 176.30887695 37.08496094 175.84619141 C34.16591763 173.48200014 31.12459079 171.27455922 28.109375 169.03515625 C26.5 167.5625 26.5 167.5625 25.5 164.5625 C26.2421875 161.70703125 26.2421875 161.70703125 27.375 158.375 C29.00056283 153.36378216 30.08889778 148.80405335 30.5 143.5625 C27.95229028 142.33713841 27.95229028 142.33713841 24.5 142.5625 C22.42548154 144.11605028 22.42548154 144.11605028 20.375 146.1875 C11.27799197 154.96235429 -1.39570341 157.96294882 -13.75 157.875 C-14.584104 157.86936035 -15.41820801 157.8637207 -16.27758789 157.85791016 C-28.7814427 157.61351938 -42.10700489 154.26610782 -51.25 145.1875 C-51.9925 144.32125 -52.735 143.455 -53.5 142.5625 C-53.17 141.5725 -52.84 140.5825 -52.5 139.5625 C-50.9176994 139.22429834 -49.33410625 138.89214061 -47.75 138.5625 C-46.86828125 138.376875 -45.9865625 138.19125 -45.078125 138 C-42.5 137.5625 -42.5 137.5625 -38.5 137.5625 C-37.99453917 133.18811293 -37.49659468 128.81290173 -37 124.4375 C-36.85691406 123.2 -36.71382812 121.9625 -36.56640625 120.6875 C-36.43105469 119.48867187 -36.29570313 118.28984375 -36.15625 117.0546875 C-36.03056641 115.95495605 -35.90488281 114.85522461 -35.77539062 113.72216797 C-35.50687996 110.64143657 -35.3795955 107.6526928 -35.5 104.5625 C-35.83 104.2325 -36.16 103.9025 -36.5 103.5625 C-38.79512202 103.6168437 -41.08855923 103.74470853 -43.37890625 103.90234375 C-44.0655687 103.94815079 -44.75223114 103.99395782 -45.45970154 104.04115295 C-47.66100311 104.18914921 -49.86171729 104.34449559 -52.0625 104.5 C-53.55139947 104.60139459 -55.04033149 104.70231235 -56.52929688 104.80273438 C-60.18659233 105.05045 -63.84339567 105.30476161 -67.5 105.5625 C-64.35618833 95.61492955 -57.31178562 88.0835773 -48.5 82.5625 C-47.84 82.5625 -47.18 82.5625 -46.5 82.5625 C-46.5 81.9025 -46.5 81.2425 -46.5 80.5625 C-47.098125 80.294375 -47.69625 80.02625 -48.3125 79.75 C-50.57573361 78.52138747 -52.01540577 77.67218654 -53.5 75.5625 C-53.37167015 70.94262536 -50.83710717 67.40741824 -48.5 63.5625 C-50.170625 63.3459375 -50.170625 63.3459375 -51.875 63.125 C-55.5 62.5625 -55.5 62.5625 -57.5 61.5625 C-56.78935961 51.37665447 -52.20592174 41.8768431 -46.5 33.5625 C-65.2606989 39.58479536 -81.32060108 49.12379782 -91.5 66.5625 C-91.97050781 67.35527344 -92.44101562 68.14804688 -92.92578125 68.96484375 C-100.03313745 82.57155223 -99.97948365 99.53932108 -100.5 114.5625 C-103.14738916 116.0231285 -104.39448334 116.5625 -107.5 116.5625 C-109.66023863 93.23776126 -107.05231146 71.54373557 -92.09765625 52.50390625 C-81.06408098 39.45876478 -66.82359669 30.60785863 -50.5 25.5625 C-49.51 25.5625 -48.52 25.5625 -47.5 25.5625 C-47.35304688 25.01722656 -47.20609375 24.47195312 -47.0546875 23.91015625 C-44.00707183 13.66386217 -38.66002614 6.21973214 -29.5 0.5625 C-20.18689106 -4.11607128 -9.48220061 -4.33747423 0 0 Z " fill="#336129" transform="translate(614.5,102.4375)"/>
<path d="M0 0 C0.99443769 2.98331306 1.02452065 4.20838759 0.66015625 7.23046875 C0.56669922 8.03291016 0.47324219 8.83535156 0.37695312 9.66210938 C0.27318359 10.49548828 0.16941406 11.32886719 0.0625 12.1875 C-0.08735352 13.4549707 -0.08735352 13.4549707 -0.24023438 14.74804688 C-0.48757108 16.83274197 -0.74301041 18.91647284 -1 21 C-5.24102726 22.46508214 -9.44355136 23.85356615 -13.78515625 24.99609375 C-31.9683453 29.79324181 -48.403795 37.82785484 -59.0390625 53.95703125 C-60.28375359 56.22698462 -60.28375359 56.22698462 -60 60 C-57.03 59.01 -54.06 58.02 -51 57 C-49.49498012 59.78906461 -47.9958193 62.58100719 -46.5 65.375 C-46.07074219 66.1690625 -45.64148438 66.963125 -45.19921875 67.78125 C-44.79316406 68.54179687 -44.38710938 69.30234375 -43.96875 70.0859375 C-43.59169922 70.7876709 -43.21464844 71.4894043 -42.82617188 72.21240234 C-42 74 -42 74 -42 76 C-35.19023557 74.67485665 -30.68112204 71.18036905 -25.25 67 C-23.5679288 65.72887487 -21.8856462 64.45802943 -20.203125 63.1875 C-19.46739258 62.62417969 -18.73166016 62.06085938 -17.97363281 61.48046875 C-16.35493517 60.26624528 -14.68364728 59.12243152 -13 58 C-11.80767387 55.94996045 -11.80767387 55.94996045 -11 54 C0.77694806 60.95167073 9.21676795 70.6030226 12.8125 84.03515625 C13.66026287 88.4093772 14.07973912 92.54258346 14 97 C12.93652344 97.21914063 11.87304688 97.43828125 10.77734375 97.6640625 C4.74419619 99.17733601 -0.79617992 101.79998303 -6.4375 104.375 C-7.53771484 104.85710937 -8.63792969 105.33921875 -9.77148438 105.8359375 C-10.81498047 106.3103125 -11.85847656 106.7846875 -12.93359375 107.2734375 C-13.88290771 107.70060059 -14.83222168 108.12776367 -15.81030273 108.56787109 C-18.11410787 109.80454231 -18.11410787 109.80454231 -18.93676758 111.95581055 C-19.0526965 115.70358208 -16.3609497 118.51518001 -14.25 121.4375 C-13.74919922 122.14616211 -13.24839844 122.85482422 -12.73242188 123.58496094 C-7.85726912 130.38515836 -2.56736272 136.76095053 3 143 C3.46970215 143.53141602 3.9394043 144.06283203 4.42333984 144.61035156 C9.92974209 150.82453207 15.54393548 156.74635437 22 162 C7.27692058 174.2067713 -10.80110743 180.63177839 -30 179 C-47.18210591 176.61204174 -62.29084192 170.00309375 -75 158 C-75 157.34 -75 156.68 -75 156 C-74.37544922 155.94465088 -73.75089844 155.88930176 -73.10742188 155.83227539 C-70.23814852 155.57715218 -67.36907529 155.31984072 -64.5 155.0625 C-63.51773438 154.97548828 -62.53546875 154.88847656 -61.5234375 154.79882812 C-55.99855918 154.30158908 -50.49949402 153.72671885 -45 153 C-45.66 149.7 -46.32 146.4 -47 143 C-43.37 142.67 -39.74 142.34 -36 142 C-33.2243374 132.68730549 -30.81956831 123.34772784 -28.70751953 113.86401367 C-28.24154584 111.7745916 -27.76762406 109.68707459 -27.29296875 107.59960938 C-26.99172497 106.26052064 -26.69092616 104.9213317 -26.390625 103.58203125 C-26.12282227 102.38811768 -25.85501953 101.1942041 -25.57910156 99.96411133 C-24.90412706 97.01263626 -24.90412706 97.01263626 -25 94 C-25.71285156 95.03898437 -26.42570313 96.07796875 -27.16015625 97.1484375 C-29.63456929 100.75324475 -32.11299277 104.3552745 -34.59326172 107.95605469 C-35.81568957 109.73220289 -37.03506952 111.51044806 -38.25390625 113.2890625 C-38.87136719 114.18367188 -39.48882813 115.07828125 -40.125 116 C-40.66382813 116.78375 -41.20265625 117.5675 -41.7578125 118.375 C-42.16773438 118.91125 -42.57765625 119.4475 -43 120 C-43.33 120 -43.66 120 -44 120 C-44.09796875 119.29875 -44.1959375 118.5975 -44.296875 117.875 C-45.98498887 107.16420855 -48.73923509 101.51653366 -57.171875 94.56640625 C-57.77515625 94.04949219 -58.3784375 93.53257812 -59 93 C-59 92.67 -59 92.34 -59 92 C-47.9252571 90.33059057 -37.1952557 89.75060074 -26 90 C-26 89.34 -26 88.68 -26 88 C-27.01497559 87.87471924 -28.02995117 87.74943848 -29.07568359 87.62036133 C-32.7937454 87.03260501 -36.19200758 86.16953955 -39.7890625 85.07421875 C-40.41420746 84.88535599 -41.03935242 84.69649323 -41.68344116 84.50190735 C-43.66544542 83.90187153 -45.64521653 83.29481785 -47.625 82.6875 C-48.92824494 82.29185469 -50.23162958 81.89666923 -51.53515625 81.50195312 C-59.69771315 79.02629763 -67.84899433 76.51338515 -76 74 C-76.28617187 74.94101562 -76.57234375 75.88203125 -76.8671875 76.8515625 C-78.06913476 80.19214694 -79.35085032 81.70407027 -82 84 C-83.65 82.35 -85.3 80.7 -87 79 C-95.92070474 82.71359655 -101.58614958 92.86466785 -106 101 C-108 100 -108 100 -108.6328125 98.34765625 C-112.89885996 78.54100732 -109.47480496 59.22769153 -99 42 C-83.20003338 18.38815397 -54.50351437 9.05884551 -28.00756836 3.62329102 C-18.7240939 1.82424911 -9.42136532 0.74437674 0 0 Z " fill="#9E9431" transform="translate(572,212)"/>
<path d="M0 0 C5.20677414 0.56595371 9.1607671 2.26643837 13.75 4.625 C14.80779663 5.16459351 14.80779663 5.16459351 15.88696289 5.71508789 C31.97084927 14.08018186 44.83710904 25.92704985 51.15625 43.3046875 C61.26545155 75.59797024 51.2790124 109.21228462 38.0715332 139.06494141 C37 141 37 141 34 144 C28.72 140.04 23.44 136.08 18 132 C18.73285129 126.870041 19.62132885 122.37942785 21 117.4375 C23.38093758 108.88538229 24.23062511 101.1604462 24.3125 92.3125 C24.34150391 91.28705078 24.37050781 90.26160156 24.40039062 89.20507812 C24.48635135 78.73770646 21.43499514 69.34874834 15 61 C14.67 61 14.34 61 14 61 C13.06265201 64.31871856 12.26289224 67.55501628 12 71 C13.72855926 73.14567913 13.72855926 73.14567913 16 75 C19.77848002 86.33544007 18.72056929 99.5347437 16 111 C10.67455861 109.69581027 5.36586735 108.32858841 0.0625 106.9375 C-0.61240479 106.7631543 -1.28730957 106.58880859 -1.98266602 106.40917969 C-6.88519189 105.11480811 -6.88519189 105.11480811 -8 104 C-8.22513101 102.66197814 -8.39360807 101.31426977 -8.53515625 99.96484375 C-8.66567383 98.75151367 -8.66567383 98.75151367 -8.79882812 97.51367188 C-8.9293457 96.2384668 -8.9293457 96.2384668 -9.0625 94.9375 C-9.15337891 94.08349609 -9.24425781 93.22949219 -9.33789062 92.34960938 C-9.56250722 90.23348465 -9.78175227 88.11679106 -10 86 C-10.99 86.33 -11.98 86.66 -13 87 C-12.75636719 88.05960938 -12.75636719 88.05960938 -12.5078125 89.140625 C-11.98738024 92.07105895 -11.86696344 94.77647133 -11.875 97.75 C-11.87113281 99.19632813 -11.87113281 99.19632813 -11.8671875 100.671875 C-12 103 -12 103 -13 104 C-15.58406113 104.02934701 -18.13746095 103.99552161 -20.71875 103.9140625 C-21.49182495 103.89282318 -22.2648999 103.87158386 -23.06140137 103.84970093 C-24.69904783 103.80336141 -26.33662258 103.75442709 -27.97412109 103.703125 C-30.48910427 103.625337 -33.0042142 103.55818564 -35.51953125 103.4921875 C-37.1067896 103.4459522 -38.69403006 103.39909805 -40.28125 103.3515625 C-41.03853394 103.33171295 -41.79581787 103.3118634 -42.5760498 103.29141235 C-47.88498486 103.11501514 -47.88498486 103.11501514 -49 102 C-49.12798061 99.27966799 -49.18522499 96.5959163 -49.1875 93.875 C-49.19974609 93.12734375 -49.21199219 92.3796875 -49.22460938 91.609375 C-49.23745741 86.69285892 -48.62424037 82.64931259 -47 78 C-46 77 -46 77 -43.05859375 76.90234375 C-41.86363281 76.91394531 -40.66867187 76.92554688 -39.4375 76.9375 C-37.64119141 76.95103516 -37.64119141 76.95103516 -35.80859375 76.96484375 C-34.41833984 76.98224609 -34.41833984 76.98224609 -33 77 C-33.39380859 76.16227051 -33.78761719 75.32454102 -34.19335938 74.46142578 C-35.65003199 71.35802355 -37.10327306 68.25306314 -38.55419922 65.14697266 C-39.18335916 63.8019281 -39.81388766 62.45752282 -40.44580078 61.11376953 C-41.35287658 59.18427549 -42.25503611 57.25255007 -43.15625 55.3203125 C-43.70087891 54.15773926 -44.24550781 52.99516602 -44.80664062 51.79736328 C-46 49 -46 49 -46 47 C-44.99710938 47.32355469 -43.99421875 47.64710938 -42.9609375 47.98046875 C-33.65848093 50.62528483 -23.821971 49.71451411 -15 46 C-16.27548475 50.03469667 -17.7612968 53.80826546 -19.6015625 57.6171875 C-20.09140625 58.63554687 -20.58125 59.65390625 -21.0859375 60.703125 C-21.59382812 61.74984375 -22.10171875 62.7965625 -22.625 63.875 C-23.140625 64.94492188 -23.65625 66.01484375 -24.1875 67.1171875 C-25.45513521 69.74635682 -26.7260566 72.37388302 -28 75 C-24.34535014 73.46607212 -22.05606 71.2737222 -19.296875 68.45703125 C-18.39839844 67.54759766 -17.49992188 66.63816406 -16.57421875 65.70117188 C-15.63243069 64.73865469 -14.69102645 63.77576181 -13.75 62.8125 C-2.62985863 51.4812167 -2.62985863 51.4812167 3.33496094 46.54174805 C5.16332398 44.84876966 6.56244073 43.02996307 8 41 C7.45859375 40.16855469 7.45859375 40.16855469 6.90625 39.3203125 C6.4421875 38.59585938 5.978125 37.87140625 5.5 37.125 C5.0359375 36.40570313 4.571875 35.68640625 4.09375 34.9453125 C3 33 3 33 3 31 C5.97 30.34 8.94 29.68 12 29 C8.82603887 18.76904018 5.68439184 9.15146772 0 0 Z " fill="#4A823B" transform="translate(631,135)"/>
<path d="M0 0 C2.37199147 1.58164366 3.89667687 3.4575237 5.70751953 5.65942383 C16.47616496 17.89571716 32.86927183 31.26617036 49.59423828 32.49926758 C57.40813831 32.76944624 64.52508066 32.19853196 71.83251953 29.22192383 C72.54537109 28.93575195 73.25822266 28.64958008 73.99267578 28.35473633 C75.6195657 27.67551787 77.22875518 26.95407712 78.83251953 26.22192383 C79.82251953 31.66692383 79.82251953 31.66692383 80.83251953 37.22192383 C84.46251953 37.22192383 88.09251953 37.22192383 91.83251953 37.22192383 C91.33751953 42.17192383 91.33751953 42.17192383 90.83251953 47.22192383 C100.47852691 49.1362567 110.03404317 49.7807602 119.83251953 50.22192383 C115.94408237 59.96461916 101.79652985 65.33751936 92.83251953 69.22192383 C76.85429309 75.36566442 58.59918766 74.17836326 42.77001953 68.15942383 C30.79609766 62.67480762 20.30160378 55.33077118 10.83251953 46.22192383 C9.50455067 45.09059651 8.17140113 43.96531501 6.83251953 42.84692383 C-0.95415915 36.01021994 -7.43065003 28.07905129 -13.66748047 19.84692383 C-14.18407227 19.16895752 -14.70066406 18.49099121 -15.23291016 17.79248047 C-17.7664052 14.38930966 -19.84299992 11.30573885 -21.16748047 7.22192383 C-18.09511253 5.82141677 -15.00829973 4.45616655 -11.91748047 3.09692383 C-11.04478516 2.69860352 -10.17208984 2.3002832 -9.27294922 1.88989258 C-8.42861328 1.52250977 -7.58427734 1.15512695 -6.71435547 0.77661133 C-5.93930664 0.43098145 -5.16425781 0.08535156 -4.36572266 -0.27075195 C-2.16748047 -0.77807617 -2.16748047 -0.77807617 0 0 Z " fill="#4693C1" transform="translate(582.16748046875,317.778076171875)"/>
<path d="M0 0 C0.99443769 2.98331306 1.02452065 4.20838759 0.66015625 7.23046875 C0.56669922 8.03291016 0.47324219 8.83535156 0.37695312 9.66210938 C0.27318359 10.49548828 0.16941406 11.32886719 0.0625 12.1875 C-0.08735352 13.4549707 -0.08735352 13.4549707 -0.24023438 14.74804688 C-0.48757108 16.83274197 -0.74301041 18.91647284 -1 21 C-5.24102726 22.46508214 -9.44355136 23.85356615 -13.78515625 24.99609375 C-31.45413746 29.65758182 -48.92874309 37.58313489 -58.8203125 53.76171875 C-62.77527079 61.26566278 -63.58759568 68.5954843 -64 77 C-65.43793392 76.68950274 -66.8753318 76.3765224 -68.3125 76.0625 C-69.11300781 75.88847656 -69.91351563 75.71445312 -70.73828125 75.53515625 C-73 75 -73 75 -76 74 C-76.2475 74.9075 -76.495 75.815 -76.75 76.75 C-78.03981342 80.10351489 -79.31971042 81.67708236 -82 84 C-83.65 82.35 -85.3 80.7 -87 79 C-95.92070474 82.71359655 -101.58614958 92.86466785 -106 101 C-108 100 -108 100 -108.6328125 98.34765625 C-112.89885996 78.54100732 -109.47480496 59.22769153 -99 42 C-83.20003338 18.38815397 -54.50351437 9.05884551 -28.00756836 3.62329102 C-18.7240939 1.82424911 -9.42136532 0.74437674 0 0 Z " fill="#D6C63B" transform="translate(572,212)"/>
<path d="M0 0 C6.27 0 12.54 0 19 0 C19.71027344 2.71992188 20.42054688 5.43984375 21.15234375 8.2421875 C21.84020622 10.87009436 22.52883034 13.49780053 23.2175293 16.12548828 C23.69651746 17.95470657 24.17471097 19.78413314 24.65209961 21.61376953 C25.3376013 24.24045826 26.02593794 26.86638981 26.71484375 29.4921875 C26.92842026 30.31306854 27.14199677 31.13394958 27.36204529 31.97970581 C28.40259103 36.08934574 28.40259103 36.08934574 30 40 C33.63 26.8 37.26 13.6 41 0 C47.27 0 53.54 0 60 0 C61.57609794 11.94142671 62.8005371 23.88598306 63.85986328 35.88378906 C64.12648756 38.89178229 64.40093019 41.89899861 64.67578125 44.90625 C64.84943003 46.85152045 65.02262329 48.79683163 65.1953125 50.7421875 C65.27653351 51.62470184 65.35775452 52.50721619 65.44143677 53.41647339 C65.95121597 59.29152008 66.09130077 65.10405816 66 71 C63.68756208 71.02685412 61.3750373 71.04632841 59.0625 71.0625 C57.77472656 71.07410156 56.48695313 71.08570313 55.16015625 71.09765625 C52 71 52 71 51 70 C50.69672802 67.0481908 50.4517158 64.11144079 50.24609375 61.15234375 C50.18812622 60.36702271 50.13015869 59.58170166 50.07043457 58.77258301 C49.85443866 55.8279191 49.64645917 52.88267161 49.4375 49.9375 C48.963125 43.358125 48.48875 36.77875 48 30 C44.04 43.53 40.08 57.06 36 71 C31.71 71 27.42 71 23 71 C20.24309278 63.07715306 18.01691157 55.0269474 15.8125 46.9375 C15.44098113 45.5813183 15.069238 44.22519801 14.69726562 42.86914062 C13.79597697 39.5800223 12.89694973 36.29030369 12 33 C10.58590646 35.82818708 10.68854132 38.39133296 10.5 41.546875 C10.45939453 42.19569641 10.41878906 42.84451782 10.37695312 43.51300049 C10.24719756 45.59177196 10.12309643 47.67082431 10 49.75 C9.87649432 51.81486064 9.75165996 53.87960371 9.62304688 55.94415283 C9.50583266 57.82812713 9.39341558 59.71239807 9.28125 61.59667969 C9.02071492 64.74933514 8.52006016 67.87963906 8 71 C3.05 71 -1.9 71 -7 71 C-5.58615628 53.67289394 -4.16430733 36.34633735 -2.56802368 19.03491211 C-2.43966608 17.6401672 -2.31252355 16.24530992 -2.18661499 14.8503418 C-2.01089071 12.90900692 -1.82979537 10.96816045 -1.6484375 9.02734375 C-1.54708496 7.93156006 -1.44573242 6.83577637 -1.34130859 5.70678711 C-1 3 -1 3 0 0 Z " fill="#4C4C4C" transform="translate(326,435)"/>
<path d="M0 0 C6.3719306 5.86477694 11.41875345 13.39586194 12.19287109 22.19140625 C12.65117981 35.67957054 12.49822353 46.5984173 3.5625 57.5 C-1.78671857 63.10560813 -6.7907785 66.12039026 -14.6875 66.3125 C-21.74362354 66.21060652 -25.89990279 64.79806568 -31.125 60.08203125 C-39.70434687 51.17149636 -42.18062393 41.31322232 -42.3125 29.3125 C-42.34150391 28.45205078 -42.37050781 27.59160156 -42.40039062 26.70507812 C-42.49190429 17.36364451 -38.86160668 9.31778961 -32.54296875 2.40625 C-23.37688957 -6.35197086 -10.35074478 -7.33001722 0 0 Z " fill="#689C58" transform="translate(615,112)"/>
<path d="M0 0 C15.51 0 31.02 0 47 0 C46.67 5.28 46.34 10.56 46 16 C36.76 16 27.52 16 18 16 C17.71111787 21.17527585 17.71111787 21.17527585 17.43188477 26.35107422 C17.11111111 31.77777778 17.11111111 31.77777778 16 34 C16.99 33.505 16.99 33.505 18 33 C26.79122235 32.37205555 35.07932628 34.33763059 42 40 C48.07512475 45.71688644 50.58861793 51.68048824 51.375 59.9375 C50.92775081 70.12258381 46.32164238 78.34011297 39.1171875 85.328125 C30.31376468 92.27990539 19.35595298 94.35456619 8.4375 94.25 C7.62603516 94.25773438 6.81457031 94.26546875 5.97851562 94.2734375 C0.94180841 94.25717694 -3.22663178 93.61461583 -8 92 C-7.67 87.71 -7.34 83.42 -7 79 C-6.0925 79.165 -5.185 79.33 -4.25 79.5 C5.14727293 80.77195411 13.57146558 80.77874704 22 76 C25.89879022 72.75100815 28.65830115 69.72915319 29.30078125 64.59765625 C29.43052099 57.72449294 29.43052099 57.72449294 26 52 C16.2660906 46.35433255 6.38515832 49.5181983 -4 52 C-3.28188739 34.61672227 -1.5686806 17.32369015 0 0 Z " fill="#D9A628" transform="translate(831,435)"/>
<path d="M0 0 C13.66296157 1.98733986 26.78944144 14.4339567 34.9296875 24.9375 C47.27647154 43.20142205 48.4338078 62.72265526 45 84 C44.01 84 43.02 84 42 84 C40.4921875 81.9453125 40.4921875 81.9453125 38.875 79.125 C35.22019914 73.09105682 30.86397654 68.08456505 26 63 C23.36 64.98 20.72 66.96 18 69 C13 61.25 13 61.25 13 59 C9.04 59.99 5.08 60.98 1 62 C0.938125 60.1025 0.87625 58.205 0.8125 56.25 C0.26610508 49.00432822 -1.437585 40.5390804 -6.7890625 35.22265625 C-8.84169525 31.45508195 -7.13626595 27.95236501 -6 24 C-5.58018957 22.38068467 -5.16222216 20.76089043 -4.74609375 19.140625 C-4.31167939 17.50994048 -3.87547423 15.879732 -3.4375 14.25 C-1.52028284 7.17161465 -1.52028284 7.17161465 0 0 Z " fill="#3C8BB8" transform="translate(691,227)"/>
<path d="M0 0 C1 3 1 3 0.36328125 4.83984375 C-0.15685547 5.87818359 -0.15685547 5.87818359 -0.6875 6.9375 C-3.3039923 12.46221894 -5.14931112 18.18214293 -7 24 C-2.545 24.99 -2.545 24.99 2 26 C1.04792348 28.44819677 0.12494122 30.78299682 -1.1875 33.0625 C-2.13990902 34.95755787 -2.13990902 34.95755787 -1.9375 37 C-0.61423721 39.82296062 1.56063253 41.12356348 4 43 C4 43.66 4 44.32 4 45 C2.36910023 46.19619303 0.69305668 47.33103225 -1 48.4375 C-7.21609129 52.82485734 -13.13674146 58.69624813 -15.72045898 66.05078125 C-17.63882869 68.97317464 -19.668409 69.0037558 -23.03125 69.703125 C-24.23394531 69.9609375 -25.43664062 70.21875 -26.67578125 70.484375 C-27.93777344 70.73703125 -29.19976563 70.9896875 -30.5 71.25 C-32.39298828 71.6521875 -32.39298828 71.6521875 -34.32421875 72.0625 C-43.54711416 74 -43.54711416 74 -46 74 C-46.58115205 53.81034713 -44.31448309 35.3254308 -30.625 19.5 C-21.6473238 10.36912113 -12.22331291 4.07443764 0 0 Z " fill="#7BB366" transform="translate(564,140)"/>
<path d="M0 0 C12.875 0.875 12.875 0.875 14 2 C14.11853851 4.01785302 14.16741778 6.03982348 14.18945312 8.06103516 C14.20617065 9.35973541 14.22288818 10.65843567 14.2401123 11.99649048 C14.24679428 12.69550098 14.25347626 13.39451149 14.26036072 14.11470413 C14.28136571 16.30110678 14.30839635 18.48736045 14.33703613 20.67367554 C14.39683475 25.32405943 14.44884442 29.97451414 14.5 34.625 C14.5593491 39.99366116 14.62191435 45.36225129 14.69187927 50.73078537 C14.71829521 52.87711056 14.73921472 55.02344327 14.7598877 57.16983032 C14.77660522 58.48744354 14.79332275 59.80505676 14.81054688 61.16259766 C14.82307495 62.31652008 14.83560303 63.4704425 14.84851074 64.65933228 C15.00720524 68.15889112 15.45062128 71.5419982 16 75 C11.71 75 7.42 75 3 75 C3 74.34 3 73.68 3 73 C2.071875 73.495 1.14375 73.99 0.1875 74.5 C-5.408341 76.86747119 -11.54013448 77.07255831 -17.34375 75.2734375 C-23.9214969 72.2545462 -27.13180674 67.5558703 -30 61 C-32.51378487 50.78883248 -31.71166962 40.06809694 -26.81640625 30.74609375 C-23.09582523 25.02293371 -18.5448471 22.6414061 -12 21 C-6.89611361 20.49797839 -4.89870059 21.04051976 0 23 C0 15.41 0 7.82 0 0 Z M-12.375 36.25 C-15.96622283 42.32745402 -15.48739961 49.11654938 -15 56 C-13.48205663 60.26469804 -12.75096319 61.49935788 -9 64 C-3.95998592 63.76787034 -3.95998592 63.76787034 0 61 C0.45756227 56.85143538 0.32402177 52.67087925 0.3125 48.5 C0.32861328 47.33339844 0.34472656 46.16679687 0.36132812 44.96484375 C0.36197266 43.85238281 0.36261719 42.73992187 0.36328125 41.59375 C0.36626221 40.56958984 0.36924316 39.54542969 0.37231445 38.49023438 C0.24945068 37.66845703 0.12658691 36.84667969 0 36 C-4.43295967 33.04469355 -8.33865276 32.42609208 -12.375 36.25 Z " fill="#4C4C4C" transform="translate(697,431)"/>
<path d="M0 0 C2.47068936 1.13239929 3.8639165 2.54221203 5.71875 4.52734375 C8.39528272 7.3131227 11.09664163 9.95190726 14.03125 12.46484375 C17.33416056 15.29962526 20.40660895 18.28795981 23.42578125 21.421875 C25.10582372 23.1206988 25.10582372 23.1206988 27.96875 24.90234375 C28.62875 24.57234375 29.28875 24.24234375 29.96875 23.90234375 C29.96875 24.89234375 29.96875 25.88234375 29.96875 26.90234375 C23.53375 27.39734375 23.53375 27.39734375 16.96875 27.90234375 C14.19037347 36.41330995 14.19037347 36.41330995 14.96875 51.90234375 C26.51875 52.23234375 38.06875 52.56234375 49.96875 52.90234375 C49.96875 45.90026792 49.86467708 39.73378773 48.96875 32.90234375 C49.29875 33.89234375 49.62875 34.88234375 49.96875 35.90234375 C50.95875 35.90234375 51.94875 35.90234375 52.96875 35.90234375 C54.5514493 39.06774235 54.62571549 42.54875884 55.03125 46.02734375 C55.16756836 47.15849609 55.16756836 47.15849609 55.30664062 48.3125 C55.53065852 50.17538563 55.75013573 52.03881627 55.96875 53.90234375 C60.91875 55.22234375 65.86875 56.54234375 70.96875 57.90234375 C66.61500561 66.60983254 58.89916878 69.85562486 49.96875 72.90234375 C44.09713912 74.63425775 38.82885861 75.25834091 32.71875 75.21484375 C31.884646 75.2092041 31.05054199 75.20356445 30.19116211 75.19775391 C17.6873073 74.95336313 4.36174511 71.60595157 -4.78125 62.52734375 C-5.895 61.22796875 -5.895 61.22796875 -7.03125 59.90234375 C-6.70125 58.91234375 -6.37125 57.92234375 -6.03125 56.90234375 C-4.4489494 56.56414209 -2.86535625 56.23198436 -1.28125 55.90234375 C0.04132812 55.62390625 0.04132812 55.62390625 1.390625 55.33984375 C3.96875 54.90234375 3.96875 54.90234375 7.96875 54.90234375 C8.47421083 50.52795668 8.97215532 46.15274548 9.46875 41.77734375 C9.68337891 39.92109375 9.68337891 39.92109375 9.90234375 38.02734375 C10.03769531 36.82851562 10.17304687 35.6296875 10.3125 34.39453125 C10.50102539 32.74493408 10.50102539 32.74493408 10.69335938 31.06201172 C10.96187004 27.98128032 11.0891545 24.99253655 10.96875 21.90234375 C10.63875 21.57234375 10.30875 21.24234375 9.96875 20.90234375 C7.67362798 20.95668745 5.38019077 21.08455228 3.08984375 21.2421875 C2.4031813 21.28799454 1.71651886 21.33380157 1.00904846 21.3809967 C-1.19225311 21.52899296 -3.39296729 21.68433934 -5.59375 21.83984375 C-7.08264947 21.94123834 -8.57158149 22.0421561 -10.06054688 22.14257812 C-13.71784233 22.39029375 -17.37464567 22.64460536 -21.03125 22.90234375 C-18.63039403 15.30561521 -9.4494878 -0.4543023 0 0 Z " fill="#5C914C" transform="translate(568.03125,185.09765625)"/>
<path d="M0 0 C0.05414062 0.56460937 0.10828125 1.12921875 0.1640625 1.7109375 C1.38928451 5.06598467 3.59133601 6.4404448 6.375 8.625 C7.35210938 9.40101563 8.32921875 10.17703125 9.3359375 10.9765625 C11.18016947 12.37731347 13.07307233 13.71538155 15 15 C14.67 16.32 14.34 17.64 14 19 C14.639375 19.226875 15.27875 19.45375 15.9375 19.6875 C18 21 18 21 18.78125 23.21875 C19.05934101 26.75447855 18.1238592 28.65169966 16.5625 31.8125 C16.08941406 32.78832031 15.61632812 33.76414062 15.12890625 34.76953125 C14.75636719 35.50558594 14.38382813 36.24164063 14 37 C14.62261719 36.97679687 15.24523437 36.95359375 15.88671875 36.9296875 C26.32741494 36.72582453 36.62965841 37.90408982 47 39 C46.23945312 39.75796875 45.47890625 40.5159375 44.6953125 41.296875 C36.8069235 49.20812889 33.19427177 55.77384536 32 67 C29.00297667 64.16828704 26.67954862 61.26235021 24.3984375 57.83203125 C23.74359375 56.85685547 23.08875 55.88167969 22.4140625 54.87695312 C21.74117187 53.86568359 21.06828125 52.85441406 20.375 51.8125 C19.0328091 49.79540061 17.68665737 47.78092932 16.3359375 45.76953125 C15.74345215 44.87854736 15.1509668 43.98756348 14.54052734 43.06958008 C13.16207568 40.8933529 13.16207568 40.8933529 11 40 C10.7525 40.886875 10.505 41.77375 10.25 42.6875 C8.96065232 46.10427135 7.40019871 48.2797748 5 51 C-0.18787842 50.39827116 -4.41351958 48.74035856 -9.125 46.625 C-9.82753906 46.32078125 -10.53007813 46.0165625 -11.25390625 45.703125 C-14.82929677 44.12157229 -17.98645071 42.54512194 -21 40 C-21.99 40.99 -22.98 41.98 -24 43 C-24 42.34 -24 41.68 -24 41 C-24.66 40.67 -25.32 40.34 -26 40 C-25.125 33.125 -25.125 33.125 -24 32 C-23.9071875 30.576875 -23.9071875 30.576875 -23.8125 29.125 C-22.6523627 20.43289436 -16.43263787 11.73316657 -10 6 C-6.76948119 3.79113868 -3.45500245 1.83525281 0 0 Z " fill="#F9FAFA" transform="translate(640,265)"/>
<path d="M0 0 C3.66321695 3.01197838 5.56101191 5.51943292 7 10 C7.27124023 13.15039062 7.27124023 13.15039062 7.30859375 16.65625 C7.33373047 17.92597656 7.35886719 19.19570313 7.38476562 20.50390625 C7.41992123 23.16792007 7.45117143 25.8319883 7.47851562 28.49609375 C7.50494141 29.76582031 7.53136719 31.03554688 7.55859375 32.34375 C7.57204834 33.50068359 7.58550293 34.65761719 7.59936523 35.84960938 C8.03944883 39.3102058 9.16321716 41.08843575 11 44 C11 48 11 48 8.875 51.3125 C6 54 6 54 2.9375 54.0625 C0.11345341 53.04103634 -1.76301221 51.97887381 -4 50 C-5.134375 50.66 -6.26875 51.32 -7.4375 52 C-13.46931447 54.98931193 -18.96494844 54.86161683 -25.3125 52.8125 C-30.02712842 50.80667399 -32.09186782 47.85950874 -34.3125 43.3125 C-35.54400765 37.37887224 -34.98333759 32.1240092 -32.4375 26.625 C-28.53340573 22.42059079 -23.63413518 20.06422553 -18 19 C-16.08438746 18.93311409 -14.16664408 18.91468281 -12.25 18.9375 C-11.26515625 18.94652344 -10.2803125 18.95554687 -9.265625 18.96484375 C-8.14414062 18.98224609 -8.14414062 18.98224609 -7 19 C-7.66 16.69 -8.32 14.38 -9 12 C-15.43742332 9.71575301 -22.06207735 13.50990341 -28 16 C-28.86941494 14.76055724 -29.72005457 13.50792941 -30.5625 12.25 C-31.03816406 11.55390625 -31.51382812 10.8578125 -32.00390625 10.140625 C-33 8 -33 8 -33.01171875 5.90234375 C-31.45122174 2.96812737 -29.2941453 2.48932203 -26.25 1.3125 C-25.20328125 0.89613281 -24.1565625 0.47976563 -23.078125 0.05078125 C-15.31296114 -2.60001707 -7.70714354 -3.05377386 0 0 Z M-17 31 C-19.36410488 32.93731528 -19.36410488 32.93731528 -19.3125 36.4375 C-19.25879056 39.86150104 -19.25879056 39.86150104 -17.875 42 C-15.00672824 43.52974494 -13.06165646 42.82919862 -10 42 C-9.01 41.34 -8.02 40.68 -7 40 C-6.63539547 37.33346095 -6.63539547 37.33346095 -6.8125 34.375 C-6.83957031 33.37210937 -6.86664063 32.36921875 -6.89453125 31.3359375 C-6.92933594 30.56507813 -6.96414063 29.79421875 -7 29 C-10.9446398 29 -13.3684282 29.57895017 -17 31 Z " fill="#4C4C4C" transform="translate(518,454)"/>
<path d="M0 0 C4.52074049 4.52074049 5.11683811 8.20529377 5.2109375 14.42578125 C5.23929688 15.69744141 5.26765625 16.96910156 5.296875 18.27929688 C5.35157042 20.95644259 5.39306256 23.63300195 5.4296875 26.31054688 C5.460625 27.58607422 5.4915625 28.86160156 5.5234375 30.17578125 C5.5531665 31.92242065 5.5531665 31.92242065 5.58349609 33.7043457 C6.04537767 37.35905815 7.31125114 39.7568282 9 43 C9 48.30479934 7.4637943 49.18982627 4 53 C0.62537285 52.45276317 -1.08235 51.9451 -4 50 C-4 49.34 -4 48.68 -4 48 C-4.9075 48.639375 -5.815 49.27875 -6.75 49.9375 C-11.99584821 53.26659598 -16.88906735 53.56869932 -23 53 C-28.23846322 51.34115331 -31.39768594 49.13206613 -35 45 C-37.41043663 40.17912674 -36.76292571 32.82817047 -35.38671875 27.7265625 C-32.93367276 22.77724505 -28.94180633 20.81698738 -24 19 C-19.16990768 17.47470769 -14.01853698 17.91229741 -9 18 C-9.66 15.69 -10.32 13.38 -11 11 C-16.04330803 9.26636286 -19.35320153 11.06156945 -24 13 C-25.99640639 13.67735217 -27.99504414 14.34838935 -30 15 C-30.84158536 13.73461631 -31.67299748 12.46246221 -32.5 11.1875 C-33.19609375 10.12595703 -33.19609375 10.12595703 -33.90625 9.04296875 C-35 7 -35 7 -35 4 C-23.73670609 -2.16071609 -12.26741105 -6.00320115 0 0 Z M-20 31 C-21.41349769 34.39418221 -21.41349769 34.39418221 -21 38 C-19.60314994 40.6469872 -19.60314994 40.6469872 -17 42 C-13.3014996 41.85205998 -11.64194427 41.64194427 -9 39 C-8.75684344 36.33050591 -8.75684344 36.33050591 -8.875 33.375 C-8.89304687 32.37210937 -8.91109375 31.36921875 -8.9296875 30.3359375 C-8.95289063 29.56507813 -8.97609375 28.79421875 -9 28 C-13.59488249 28 -16.04064796 28.68415258 -20 31 Z " fill="#4C4C4C" transform="translate(651,455)"/>
<path d="M0 0 C4.00065233 3.6945915 5.23021934 7.73517389 6.75 12.9375 C6.75 17.5575 6.75 22.1775 6.75 26.9375 C-2.82 26.9375 -12.39 26.9375 -22.25 26.9375 C-21.26 29.9075 -20.27 32.8775 -19.25 35.9375 C-14.87296575 38.12601713 -13.05134774 38.41763477 -8.25 37.9375 C-6.08590526 36.98673044 -4.07860262 35.92168996 -2.046875 34.71484375 C-0.25 33.9375 -0.25 33.9375 2.75 34.9375 C3.91796875 36.78515625 3.91796875 36.78515625 4.9375 39 C5.28167969 39.73347656 5.62585938 40.46695313 5.98046875 41.22265625 C6.23441406 41.78855469 6.48835937 42.35445313 6.75 42.9375 C0.0536128 49.20186222 -7.45051401 50.47657594 -16.3828125 50.2265625 C-22.5392032 49.60589096 -27.93619116 47.4844877 -32.25 42.9375 C-37.72115717 33.79307299 -39.78240055 24.80232045 -37.71875 14.2109375 C-35.51352815 6.2769328 -32.41920406 1.06465252 -25.1953125 -3.09375 C-16.51977125 -7.41409986 -7.71927368 -4.89876983 0 0 Z M-19.4375 7.5 C-21.74869932 10.6081646 -21.95673279 13.12502628 -22.25 16.9375 C-17.63 16.9375 -13.01 16.9375 -8.25 16.9375 C-7.45867321 10.24190175 -7.45867321 10.24190175 -10.5 7.5 C-13.98858874 5.51784731 -16.07575493 5.09875352 -19.4375 7.5 Z " fill="#4C4C4C" transform="translate(759.25,457.0625)"/>
<path d="M0 0 C5.21461399 4.1479884 8.08627932 9.49740405 9.75 15.875 C10.09894863 20.2368579 10 24.62420642 10 29 C0.1 29 -9.8 29 -20 29 C-17.12173199 37.63860517 -17.12173199 37.63860517 -13 40 C-7.16908607 40.5929743 -3.7290583 39.78081432 1.3359375 36.875 C3 36 3 36 5 36 C7.8394052 39.67452438 9 41.26886581 9 46 C7.58671871 46.81837442 6.16921654 47.62946219 4.75 48.4375 C3.96109375 48.88996094 3.1721875 49.34242188 2.359375 49.80859375 C-3.89812277 52.96842292 -11.5757988 52.93334477 -18.3515625 51.50390625 C-24.62005231 49.36197054 -29.26381824 45.83031024 -32.3125 39.875 C-36.02994818 31.81268622 -36.41740988 21.73896936 -34.28125 13.08984375 C-33.34598891 10.89122596 -32.32706947 8.98412016 -31 7 C-30.61457031 6.41863281 -30.22914063 5.83726562 -29.83203125 5.23828125 C-26.54264807 0.84179176 -22.76413895 -1.22037107 -17.5625 -2.6875 C-11.03009838 -3.48413434 -5.83717451 -3.05404911 0 0 Z M-16.75 10.125 C-19.61630826 13.17904326 -19.61630826 13.17904326 -19 19 C-14.38 19 -9.76 19 -5 19 C-4.38369174 13.17904326 -4.38369174 13.17904326 -7.25 10.125 C-11.08294818 7.16317641 -12.91705182 7.16317641 -16.75 10.125 Z " fill="#4C4C4C" transform="translate(435,455)"/>
<path d="M0 0 C16.83 0 33.66 0 51 0 C50 10 50 10 49 13 C43.39 13 37.78 13 32 13 C32 32.14 32 51.28 32 71 C27.05 71 22.1 71 17 71 C17 51.86 17 32.72 17 13 C11.39 13 5.78 13 0 13 C0 8.71 0 4.42 0 0 Z " fill="#4C4C4C" transform="translate(533,435)"/>
<path d="M0 0 C0.495 0.99 0.495 0.99 1 2 C-0.13564183 4.54467892 -1.32880211 6.97607891 -2.625 9.4375 C-3.36877695 10.88329801 -4.11095856 12.32991781 -4.8515625 13.77734375 C-5.21797852 14.49132324 -5.58439453 15.20530273 -5.96191406 15.94091797 C-8.12197235 20.22547385 -10.06547845 24.61012417 -12 29 C-11.15695312 29.04898438 -10.31390625 29.09796875 -9.4453125 29.1484375 C-8.34960938 29.22320312 -7.25390625 29.29796875 -6.125 29.375 C-5.03445313 29.44460937 -3.94390625 29.51421875 -2.8203125 29.5859375 C0 30 0 30 2 32 C3.7859474 40.10290952 4.69237145 48.70764429 4 57 C3 58 3 58 -0.31054688 58.03759766 C-1.780095 58.00205366 -3.24950349 57.96042829 -4.71875 57.9140625 C-5.49182495 57.89282318 -6.2648999 57.87158386 -7.06140137 57.84970093 C-8.69904783 57.80336141 -10.33662258 57.75442709 -11.97412109 57.703125 C-14.48910427 57.625337 -17.0042142 57.55818564 -19.51953125 57.4921875 C-21.1067896 57.4459522 -22.69403006 57.39909805 -24.28125 57.3515625 C-25.03853394 57.33171295 -25.79581787 57.3118634 -26.5760498 57.29141235 C-31.88498486 57.11501514 -31.88498486 57.11501514 -33 56 C-33.12798061 53.27966799 -33.18522499 50.5959163 -33.1875 47.875 C-33.19974609 47.12734375 -33.21199219 46.3796875 -33.22460938 45.609375 C-33.23745741 40.69285892 -32.62424037 36.64931259 -31 32 C-30 31 -30 31 -27.05859375 30.90234375 C-25.86363281 30.91394531 -24.66867187 30.92554688 -23.4375 30.9375 C-21.64119141 30.95103516 -21.64119141 30.95103516 -19.80859375 30.96484375 C-18.88175781 30.97644531 -17.95492187 30.98804688 -17 31 C-17.39380859 30.16227051 -17.78761719 29.32454102 -18.19335938 28.46142578 C-19.65003199 25.35802355 -21.10327306 22.25306314 -22.55419922 19.14697266 C-23.18335916 17.8019281 -23.81388766 16.45752282 -24.44580078 15.11376953 C-25.35287658 13.18427549 -26.25503611 11.25255007 -27.15625 9.3203125 C-27.97319336 7.57645264 -27.97319336 7.57645264 -28.80664062 5.79736328 C-30 3 -30 3 -30 1 C-28.99839844 1.32355469 -27.99679687 1.64710938 -26.96484375 1.98046875 C-18.08211211 4.5065863 -8.28702934 4.05895315 0 0 Z " fill="#F8FAF6" transform="translate(615,181)"/>
<path d="M0 0 C3.47773326 1.55125944 4.59911316 4.13634701 6.23828125 7.39453125 C6.9162213 8.67289017 7.59861629 9.94889523 8.28515625 11.22265625 C8.63255859 11.86783203 8.97996094 12.51300781 9.33789062 13.17773438 C11.6023874 17.14162011 14.35676253 20.78380347 17.0546875 24.4609375 C18.42578125 27.08203125 18.42578125 27.08203125 18.421875 29.76171875 C17.11793659 32.79912821 15.91943172 33.31863976 12.92578125 34.64453125 C12.02472656 35.05058594 11.12367188 35.45664062 10.1953125 35.875 C9.28136719 36.27332031 8.36742187 36.67164063 7.42578125 37.08203125 C6.60464844 37.49066406 5.78351562 37.89929688 4.9375 38.3203125 C1.79160332 39.8588939 -0.82132262 41.01358615 -4.32421875 41.33203125 C-7.98739458 39.29693357 -9.78853627 35.79777054 -11.57421875 32.08203125 C-11.57421875 31.42203125 -11.57421875 30.76203125 -11.57421875 30.08203125 C-14.64973957 32.98638152 -17.04793284 36.01229749 -19.4296875 39.50390625 C-20.13416016 40.52871094 -20.83863281 41.55351562 -21.56445312 42.609375 C-22.28955078 43.67285156 -23.01464844 44.73632812 -23.76171875 45.83203125 C-25.2105161 47.95389193 -26.6621727 50.07380421 -28.1171875 52.19140625 C-28.7568042 53.12952148 -29.3964209 54.06763672 -30.05541992 55.03417969 C-30.55662354 55.7099707 -31.05782715 56.38576172 -31.57421875 57.08203125 C-31.90421875 57.08203125 -32.23421875 57.08203125 -32.57421875 57.08203125 C-32.6721875 56.38078125 -32.77015625 55.67953125 -32.87109375 54.95703125 C-34.55920762 44.2462398 -37.31345384 38.59856491 -45.74609375 31.6484375 C-46.349375 31.13152344 -46.95265625 30.61460937 -47.57421875 30.08203125 C-47.57421875 29.75203125 -47.57421875 29.42203125 -47.57421875 29.08203125 C-36.49947585 27.41262182 -25.76947445 26.83263199 -14.57421875 27.08203125 C-14.94675781 26.34597656 -15.31929687 25.60992187 -15.703125 24.8515625 C-16.17621094 23.87574219 -16.64929688 22.89992188 -17.13671875 21.89453125 C-17.61238281 20.93160156 -18.08804688 19.96867187 -18.578125 18.9765625 C-19.71378495 15.6764683 -19.89358219 14.30422163 -18.57421875 11.08203125 C-16.24609375 8.94921875 -16.24609375 8.94921875 -13.32421875 6.95703125 C-12.3703125 6.29445313 -11.41640625 5.631875 -10.43359375 4.94921875 C-9.49 4.33304687 -8.54640625 3.716875 -7.57421875 3.08203125 C-6.73375 2.48648437 -5.89328125 1.8909375 -5.02734375 1.27734375 C-2.57421875 0.08203125 -2.57421875 0.08203125 0 0 Z " fill="#FDFBF5" transform="translate(560.57421875,274.91796875)"/>
<path d="M0 0 C0.061875 1.051875 0.12375 2.10375 0.1875 3.1875 C0.63663482 5.22097371 0.63663482 5.22097371 2 7 C5.12827611 8.53709244 8.31432237 9.58560299 11.61328125 10.70703125 C24.29276238 15.54775588 33.03559673 27.67075699 38.55859375 39.5625 C43.27634889 50.81351497 45.50352158 63.28366697 41 75 C37.55571735 73.55218207 35.63869038 71.72305391 33.25 68.875 C32.63640625 68.15054688 32.0228125 67.42609375 31.390625 66.6796875 C30.93171875 66.12539063 30.4728125 65.57109375 30 65 C30.66 64.67 31.32 64.34 32 64 C29.80112662 48.80076999 25.69613355 36.72482834 14 26 C11.6974217 24.37216992 9.56351213 23.19994185 7 22 C6.75088867 22.59619141 6.50177734 23.19238281 6.24511719 23.80664062 C4.81276494 26.3298274 3.43850858 27.42670888 1.078125 29.09375 C0.29953125 29.64933594 -0.4790625 30.20492188 -1.28125 30.77734375 C-2.0959375 31.34582031 -2.910625 31.91429687 -3.75 32.5 C-4.54921875 33.06847656 -5.3484375 33.63695312 -6.171875 34.22265625 C-7.73185852 35.32849983 -9.29748344 36.42643617 -10.86914062 37.515625 C-12.17287168 38.42381529 -13.46622327 39.34744361 -14.74023438 40.296875 C-18.03433141 42.69258193 -19.98597234 43.17166911 -24 43 C-25.76484854 39.62157566 -27.48021966 36.22033028 -29.1875 32.8125 C-29.94063477 31.37293945 -29.94063477 31.37293945 -30.70898438 29.90429688 C-31.16982422 28.97294922 -31.63066406 28.04160156 -32.10546875 27.08203125 C-32.54012451 26.22843018 -32.97478027 25.3748291 -33.42260742 24.49536133 C-34 22 -34 22 -32.8059082 19.24487305 C-31 17 -31 17 -28 16 C-25.36 21.61 -22.72 27.22 -20 33 C-16.15550908 31.07775454 -12.75087158 28.83715144 -9.25 26.375 C-8.64800781 25.95476562 -8.04601562 25.53453125 -7.42578125 25.1015625 C-5.94886957 24.07006863 -4.47420806 23.03535421 -3 22 C-3.87247183 17.82327317 -4.72062486 13.76460564 -6.1875 9.75 C-7.10653732 6.63941215 -7.17460807 5.02042076 -6 2 C-3.84898936 0.54286376 -2.59713506 0 0 0 Z " fill="#726A24" transform="translate(554,245)"/>
<path d="M0 0 C-0.33 5.28 -0.66 10.56 -1 16 C2.96 16 6.92 16 11 16 C10.01 19.3 9.02 22.6 8 26 C5.03 26 2.06 26 -1 26 C-0.90638035 30.07549941 -0.80026839 34.15046336 -0.68261719 38.2253418 C-0.6443565 39.61131907 -0.60949844 40.99739465 -0.578125 42.38354492 C-0.53241301 44.3770164 -0.47341075 46.37016914 -0.4140625 48.36328125 C-0.36693115 50.16212769 -0.36693115 50.16212769 -0.31884766 51.99731445 C-0.21570506 55.17882706 -0.21570506 55.17882706 2 58 C3.97747122 58.36297936 3.97747122 58.36297936 6.125 58.1875 C7.40375 58.125625 8.6825 58.06375 10 58 C10.33 60.97 10.66 63.94 11 67 C4.99233418 69.75076274 -1.92397877 70.36335883 -8.265625 68.2421875 C-11.74519502 66.38544216 -13.70245311 64.68183685 -15 61 C-15.1683504 58.28105045 -15.23294575 55.66896045 -15.1953125 52.953125 C-15.1924826 52.18192322 -15.18965271 51.41072144 -15.18673706 50.6161499 C-15.17557013 48.16060668 -15.15047229 45.7054324 -15.125 43.25 C-15.11496568 41.58203653 -15.10584061 39.91406732 -15.09765625 38.24609375 C-15.07564225 34.16392103 -15.04113667 30.082023 -15 26 C-16.65 26 -18.3 26 -20 26 C-20 22.7 -20 19.4 -20 16 C-18.35 16 -16.7 16 -15 16 C-15 11.71 -15 7.42 -15 3 C-3.375 0 -3.375 0 0 0 Z " fill="#4C4C4C" transform="translate(469,438)"/>
<path d="M0 0 C11.82020062 5.06580027 18.72486313 14.1940985 23.8125 25.8125 C25.73780227 31.30527412 25.74516997 37.23556901 26 43 C15.20126819 37.96059182 7.39212984 20.22645315 2 10 C-3.71434842 10.41319135 -6.96394468 12.71507075 -11.375 16.0625 C-12.01566406 16.53494141 -12.65632812 17.00738281 -13.31640625 17.49414062 C-14.88489835 18.65295195 -16.44348458 19.82515069 -18 21 C-17.487639 24.51191131 -16.92337151 27.64484454 -15.4375 30.875 C-14.963125 31.90625 -14.48875 32.9375 -14 34 C-18.92111586 33.39796117 -23.4470192 32.40304798 -28.2109375 30.96875 C-28.86454254 30.77277222 -29.51814758 30.57679443 -30.19155884 30.37487793 C-31.5586121 29.96376548 -32.92493088 29.55020326 -34.29052734 29.13427734 C-36.38843418 28.49591216 -38.48889699 27.86656065 -40.58984375 27.23828125 C-50.85918683 24.14081317 -50.85918683 24.14081317 -52 23 C-52.12583966 21.065581 -52.17578009 19.12597237 -52.1875 17.1875 C-52.20167969 16.12917969 -52.21585937 15.07085937 -52.23046875 13.98046875 C-51.99917938 10.98938756 -51.74109252 9.41818405 -50 7 C-47.94140625 5.69921875 -47.94140625 5.69921875 -45.5625 4.6875 C-44.78003906 4.34074219 -43.99757813 3.99398438 -43.19140625 3.63671875 C-41 3 -41 3 -38 4 C-36.92504883 5.55053711 -36.92504883 5.55053711 -35.95703125 7.52734375 C-35.60576172 8.23697266 -35.25449219 8.94660156 -34.89257812 9.67773438 C-34.53615234 10.42345703 -34.17972656 11.16917969 -33.8125 11.9375 C-33.44447266 12.67935547 -33.07644531 13.42121094 -32.69726562 14.18554688 C-30 19.70518321 -30 19.70518321 -30 22 C-23.19023557 20.67485665 -18.68112204 17.18036905 -13.25 13 C-11.5679288 11.72887487 -9.8856462 10.45802943 -8.203125 9.1875 C-7.46739258 8.62417969 -6.73166016 8.06085938 -5.97363281 7.48046875 C-4.35493517 6.26624528 -2.68364728 5.12243152 -1 4 C-0.27617533 1.94074861 -0.27617533 1.94074861 0 0 Z " fill="#B2A633" transform="translate(560,266)"/>
<path d="M0 0 C18.45025121 0.35710164 18.45025121 0.35710164 21.96875 3.703125 C22.75 5.5 22.75 5.5 23.375 9.1875 C23.54902344 9.93128906 23.72304688 10.67507812 23.90234375 11.44140625 C24.49849337 14.9049863 24.56583348 18.30900727 24.5625 21.8125 C24.56314453 22.51310547 24.56378906 23.21371094 24.56445312 23.93554688 C24.50510224 29.83286628 23.7379751 35.44353353 22.375 41.1875 C17.04955861 39.88331027 11.74086735 38.51608841 6.4375 37.125 C5.76259521 36.9506543 5.08769043 36.77630859 4.39233398 36.59667969 C-0.51019189 35.30230811 -0.51019189 35.30230811 -1.625 34.1875 C-2.30635602 30.19046797 -2.71499555 26.15146138 -3.1875 22.125 C-3.32607422 21.00416016 -3.46464844 19.88332031 -3.60742188 18.72851562 C-4.30843625 12.84759204 -4.90233458 7.11108223 -4.625 1.1875 C-3.625 0.1875 -3.625 0.1875 0 0 Z " fill="#015C8A" transform="translate(624.625,204.8125)"/>
<path d="M0 0 C4.61942387 -0.56414493 7.83206811 0.48605029 12.01953125 2.37109375 C13.12361328 2.86287109 14.22769531 3.35464844 15.36523438 3.86132812 C16.50283203 4.38146484 17.64042969 4.90160156 18.8125 5.4375 C19.96943359 5.95376953 21.12636719 6.47003906 22.31835938 7.00195312 C30.82172841 10.82172841 30.82172841 10.82172841 32 12 C32.3940605 15.99962915 31.72912435 17.9946324 29.375 21.20703125 C28.56289063 22.33334961 28.56289063 22.33334961 27.734375 23.48242188 C26.87585938 24.63581055 26.87585938 24.63581055 26 25.8125 C25.14148438 26.99489258 25.14148438 26.99489258 24.265625 28.20117188 C22.85408066 30.14204534 21.43213562 32.07429814 20 34 C6.63216559 32.64688587 -3.15787911 27.03317944 -13 18 C-13.66 17.01 -14.32 16.02 -15 15 C-13.62714844 13.75283203 -13.62714844 13.75283203 -12.2265625 12.48046875 C-11.02588968 11.38297875 -9.8253772 10.28531332 -8.625 9.1875 C-8.02171875 8.64029297 -7.4184375 8.09308594 -6.796875 7.52929688 C-6.21679688 6.99755859 -5.63671875 6.46582031 -5.0390625 5.91796875 C-4.50490723 5.43094482 -3.97075195 4.9439209 -3.42041016 4.44213867 C-1.76545531 2.85257274 -1.76545531 2.85257274 0 0 Z " fill="#716A25" transform="translate(615,310)"/>
<path d="M0 0 C0.66 1.65 1.32 3.3 2 5 C2.825 4.360625 3.65 3.72125 4.5 3.0625 C8.28288598 0.52859538 11.4842334 0.22208688 16 0 C16.99 0.33 17.98 0.66 19 1 C18.52343588 2.79236067 18.04366502 4.58386897 17.5625 6.375 C17.29566406 7.37273437 17.02882813 8.37046875 16.75390625 9.3984375 C16 12 16 12 15 14 C13.00390625 14.34375 13.00390625 14.34375 10.5625 14.5 C6.83440381 14.65121611 6.83440381 14.65121611 4 17 C3.75430728 19.79216791 3.62636862 22.49240605 3.5859375 25.2890625 C3.56657135 26.10748627 3.5472052 26.92591003 3.5272522 27.76913452 C3.46738918 30.38764976 3.42104468 33.00620881 3.375 35.625 C3.33682636 37.39845686 3.29777499 39.17189505 3.2578125 40.9453125 C3.16168229 45.29672375 3.07767649 49.64822179 3 54 C-1.95 54 -6.9 54 -12 54 C-12.02505615 52.66300049 -12.0501123 51.32600098 -12.07592773 49.94848633 C-12.17019426 44.98175696 -12.27036792 40.01516116 -12.37231445 35.04858398 C-12.41559052 32.9001783 -12.45727073 30.75173985 -12.49731445 28.60327148 C-12.5551946 25.51275768 -12.61883792 22.4224077 -12.68359375 19.33203125 C-12.70030624 18.37351761 -12.71701874 17.41500397 -12.73423767 16.42744446 C-12.75418289 15.52688828 -12.77412811 14.62633209 -12.79467773 13.69848633 C-12.81022202 12.91016922 -12.8257663 12.12185211 -12.84178162 11.30964661 C-13.01321731 8.80705578 -13.45963861 6.44725642 -14 4 C-12.75108386 3.51801537 -11.50081192 3.03954323 -10.25 2.5625 C-9.55390625 2.29566406 -8.8578125 2.02882813 -8.140625 1.75390625 C-5.40716264 0.79120874 -2.90916609 0 0 0 Z " fill="#4C4C4C" transform="translate(596,452)"/>
<path d="M0 0 C1.1875 2.0625 1.1875 2.0625 2 4 C2.825 3.360625 3.65 2.72125 4.5 2.0625 C8.26942172 -0.46839744 11.50195923 -0.77509796 16 -1 C16.66 -0.67 17.32 -0.34 18 0 C17.45144652 4.571279 16.58255197 8.67435795 15 13 C13.4221875 12.9071875 13.4221875 12.9071875 11.8125 12.8125 C7.64808344 13.01730737 6.11517358 13.28127308 3 16 C2.47476573 18.9765868 2.27819281 21.40404077 2.29296875 24.38671875 C2.27784744 25.20372757 2.26272614 26.02073639 2.24714661 26.86250305 C2.20417039 29.47111392 2.19542258 32.07856997 2.1875 34.6875 C2.16436323 36.45641112 2.1389996 38.22529463 2.11132812 39.99414062 C2.04837837 44.3295296 2.01612059 48.66419418 2 53 C-2.62 53 -7.24 53 -12 53 C-12.02505615 51.70376709 -12.0501123 50.40753418 -12.07592773 49.07202148 C-12.17040481 44.2431523 -12.27052574 39.4144135 -12.37231445 34.58569336 C-12.41551134 32.49946146 -12.45719658 30.41319767 -12.49731445 28.3269043 C-12.55538798 25.32070321 -12.61897393 22.31466039 -12.68359375 19.30859375 C-12.70030624 18.38227646 -12.71701874 17.45595917 -12.73423767 16.50157166 C-12.84571963 11.58074517 -13.18351972 6.85529732 -14 2 C-12.23225581 1.46877637 -10.46065917 0.95035927 -8.6875 0.4375 C-7.70136719 0.14746094 -6.71523438 -0.14257812 -5.69921875 -0.44140625 C-3 -1 -3 -1 0 0 Z " fill="#4D4D4D" transform="translate(787,453)"/>
<path d="M0 0 C13.66296157 1.98733986 26.78944144 14.4339567 34.9296875 24.9375 C47.27647154 43.20142205 48.4338078 62.72265526 45 84 C42 84 42 84 40.41650391 82.44433594 C35.85020431 75.99595154 35.240258 71.02381367 35.375 63.25 C35.254496 54.07567548 34.76495267 46.48627596 31 38 C30.58878906 37.06542969 30.17757812 36.13085938 29.75390625 35.16796875 C24.08055204 23.6766139 15.81369486 15.76778075 4.82641602 9.52319336 C2.9296875 8.38671875 2.9296875 8.38671875 0 6 C-0.4296875 2.70703125 -0.4296875 2.70703125 0 0 Z " fill="#6EA8C9" transform="translate(691,227)"/>
<path d="M0 0 C0.80856445 0.00161133 1.61712891 0.00322266 2.45019531 0.00488281 C8.51551675 0.12966353 13.15078092 1.04779918 18.3125 4.375 C18.92738281 4.71015625 19.54226563 5.0453125 20.17578125 5.390625 C21.875 6.375 21.875 6.375 24.3125 8.375 C24.3125 12.375 24.3125 12.375 23.1796875 14.6171875 C21.3125 16.375 21.3125 16.375 18.6328125 16.6953125 C17.57835937 16.63085938 16.52390625 16.56640625 15.4375 16.5 C1.12475764 16.15244996 -9.17291744 19.93036467 -21.6875 26.375 C-23.7068642 22.33627159 -23.32402899 17.41916738 -22.00390625 13.1796875 C-17.55581193 3.47139865 -10.24489939 -0.0209165 0 0 Z " fill="#B2D5EB" transform="translate(705.6875,312.625)"/>
<path d="M0 0 C-0.9590625 0.928125 -0.9590625 0.928125 -1.9375 1.875 C-2.958657 2.91634937 -3.97943305 3.95807235 -5 5 C-5.67804688 5.65871094 -6.35609375 6.31742187 -7.0546875 6.99609375 C-14.44758857 14.58085211 -19.49529636 23.73428944 -22.9453125 33.7421875 C-24.28587319 36.61198038 -25.92031375 37.91531036 -28.4375 39.8125 C-29.21996094 40.41707031 -30.00242187 41.02164063 -30.80859375 41.64453125 C-33 43 -33 43 -36 43 C-39.57362143 37.49066696 -39.99882085 32.35613271 -39 26 C-36.20331401 17.78409465 -32.00957098 12.03106304 -25 7 C-24.01 6.2575 -23.02 5.515 -22 4.75 C-14.57025117 0.41597985 -8.59702007 -0.42669033 0 0 Z " fill="#F1E472" transform="translate(497,312)"/>
<path d="M0 0 C1.32 1.32 2.64 2.64 4 4 C0.70605046 5.69034882 -2.65401319 7.18999715 -6.04296875 8.6796875 C-7.19861328 9.19660156 -8.35425781 9.71351563 -9.54492188 10.24609375 C-11.37271644 11.06345604 -13.20061669 11.88072069 -15.03588867 12.68115234 C-16.81515137 13.45858542 -18.58548206 14.2563611 -20.35546875 15.0546875 C-21.41403076 15.52374512 -22.47259277 15.99280273 -23.56323242 16.47607422 C-26.09389997 17.76545943 -26.09389997 17.76545943 -26.98339844 19.95458984 C-27.00430933 22.53093492 -26.37842934 23.56916292 -24.91015625 25.671875 C-24.45576172 26.33574219 -24.00136719 26.99960937 -23.53320312 27.68359375 C-23.04787109 28.36550781 -22.56253906 29.04742187 -22.0625 29.75 C-21.58103516 30.44738281 -21.09957031 31.14476562 -20.60351562 31.86328125 C-19.41359763 33.58336073 -18.20824463 35.29274396 -17 37 C-18.92804692 41.19845732 -21.03139566 43.50124912 -25 46 C-28.19502287 45.58773898 -30.09244541 45.13561055 -33 44 C-34.41881042 43.4675216 -35.83811883 42.93636899 -37.2578125 42.40625 C-38.49273438 41.9421875 -39.72765625 41.478125 -41 41 C-40.06603351 36.58257869 -39.12716683 32.16621196 -38.1875 27.75 C-37.92646484 26.51507813 -37.66542969 25.28015625 -37.39648438 24.0078125 C-35.75256407 16.29559379 -33.97244422 8.63492542 -32 1 C-29.53271572 4.25200793 -27.24666636 7.59126484 -25 11 C-19.79942671 10.39585177 -15.54211653 8.73480129 -10.8125 6.625 C-10.10158203 6.32078125 -9.39066406 6.0165625 -8.65820312 5.703125 C-7.63049805 5.25066406 -7.63049805 5.25066406 -6.58203125 4.7890625 C-5.96561768 4.51787598 -5.3492041 4.24668945 -4.71411133 3.96728516 C-2.79887643 2.88650455 -1.48262156 1.61281541 0 0 Z " fill="#B0A434" transform="translate(580,304)"/>
<path d="M0 0 C-0.33 0.99 -0.66 1.98 -1 3 C-0.27941406 3.28746094 0.44117188 3.57492188 1.18359375 3.87109375 C2.9696416 4.5869992 4.75375221 5.30777247 6.53515625 6.03515625 C7.36917969 6.37417969 8.20320312 6.71320313 9.0625 7.0625 C9.89910156 7.40410156 10.73570312 7.74570313 11.59765625 8.09765625 C17.14057707 10.17963139 22.25442679 10.2172035 28.125 10.25 C29.47464844 10.2809375 29.47464844 10.2809375 30.8515625 10.3125 C39.4290139 10.3617957 47.0569335 8.82324634 54.125 3.75 C57.53931591 1.55662617 59.56002687 0.59540843 63.625 1.125 C64.73875 1.41375 65.8525 1.7025 67 2 C63.48231826 9.78915242 56.78806725 12.84196477 49.16015625 15.921875 C42.18806757 18.30048622 36.08153012 19.36469232 28.75 19.3125 C27.915896 19.30686035 27.08179199 19.3012207 26.22241211 19.29541016 C13.7185573 19.05101938 0.39299511 15.70360782 -8.75 6.625 C-9.4925 5.75875 -10.235 4.8925 -11 4 C-10.67 3.01 -10.34 2.02 -10 1 C-6.59437148 0.22157062 -3.49234244 -0.09978121 0 0 Z " fill="#294F20" transform="translate(572,241)"/>
<path d="M0 0 C0.97453125 0.00902344 1.9490625 0.01804688 2.953125 0.02734375 C5.34400728 0.05078377 7.73437261 0.08359558 10.125 0.125 C10.46515925 2.14469556 10.79679169 4.16582797 11.125 6.1875 C11.310625 7.31285156 11.49625 8.43820313 11.6875 9.59765625 C12.125 13.125 12.125 13.125 12.125 20.125 C2.225 20.125 -7.675 20.125 -17.875 20.125 C-17.875 13.77293666 -17.66039109 8.30995487 -16.875 2.125 C-11.24066322 -0.28429552 -6.0060889 -0.10579831 0 0 Z " fill="#E87524" transform="translate(602.875,214.875)"/>
<path d="M0 0 C4.75416122 0.49493467 7.55220583 1.72123406 11.375 4.5625 C12.68597656 5.52349609 12.68597656 5.52349609 14.0234375 6.50390625 C14.67570313 6.99761719 15.32796875 7.49132812 16 8 C15.54586388 13.97140687 12.87438331 18.30917927 9.9375 23.375 C9.46505859 24.20644531 8.99261719 25.03789062 8.50585938 25.89453125 C7.34522454 27.9344349 6.17650227 29.96922018 5 32 C1.05216445 31.32740579 -2.5190052 30.20196349 -6.25 28.75 C-7.30703125 28.35296875 -8.3640625 27.9559375 -9.453125 27.546875 C-12 26 -12 26 -12.79907227 23.67333984 C-13.03927281 20.47747597 -12.47033983 19.35117288 -10.76171875 16.6796875 C-10.27123047 15.89722656 -9.78074219 15.11476563 -9.27539062 14.30859375 C-8.75138672 13.50550781 -8.22738281 12.70242188 -7.6875 11.875 C-7.17509766 11.06417969 -6.66269531 10.25335938 -6.13476562 9.41796875 C-4.12798293 6.2521186 -2.07919065 3.11878597 0 0 Z " fill="#EA7921" transform="translate(639,280)"/>
<path d="M0 0 C1.43212891 1.60473633 1.43212891 1.60473633 2.7265625 3.83203125 C3.2009375 4.63060547 3.6753125 5.42917969 4.1640625 6.25195312 C4.64617188 7.09693359 5.12828125 7.94191406 5.625 8.8125 C6.59625088 10.46490446 7.56760108 12.11725056 8.5390625 13.76953125 C8.96396973 14.50792236 9.38887695 15.24631348 9.82666016 16.00708008 C10.8271628 17.70643569 11.90612685 19.35919028 13 21 C13.0546875 23.48046875 13.0546875 23.48046875 12 26 C9.64648706 27.38742899 7.64363709 28.35984186 5.125 29.3125 C4.48691406 29.57611328 3.84882812 29.83972656 3.19140625 30.11132812 C0.31517669 31.26722414 -1.87529944 32 -5 32 C-6.87774765 28.78400516 -8.72283211 25.55040512 -10.5625 22.3125 C-11.09552734 21.40048828 -11.62855469 20.48847656 -12.17773438 19.54882812 C-12.67724609 18.66259766 -13.17675781 17.77636719 -13.69140625 16.86328125 C-14.15748291 16.05157471 -14.62355957 15.23986816 -15.10375977 14.40356445 C-16.20111967 11.46063111 -16.00596835 9.94968279 -15 7 C-12.63671875 4.98046875 -12.63671875 4.98046875 -9.6875 3.1875 C-8.72199219 2.58292969 -7.75648438 1.97835938 -6.76171875 1.35546875 C-4 0 -4 0 0 0 Z " fill="#E77021" transform="translate(561,280)"/>
<path d="M0 0 C1.0393868 3.39043406 2.05317093 6.78800806 3.0625 10.1875 C3.35705078 11.14720703 3.65160156 12.10691406 3.95507812 13.09570312 C4.3659668 14.49272461 4.3659668 14.49272461 4.78515625 15.91796875 C5.04176025 16.77156982 5.29836426 17.6251709 5.56274414 18.50463867 C6.07185883 21.41008883 5.95527661 23.2080052 5 26 C3.3293457 27.69750977 3.3293457 27.69750977 1.17578125 29.19140625 C0.39396484 29.74376953 -0.38785156 30.29613281 -1.19335938 30.86523438 C-2.01642578 31.42533203 -2.83949219 31.98542969 -3.6875 32.5625 C-4.8930957 33.40844727 -4.8930957 33.40844727 -6.12304688 34.27148438 C-7.69246628 35.36866638 -9.26898357 36.45577779 -10.85302734 37.53173828 C-12.16585612 38.42954955 -13.46665494 39.34571386 -14.74462891 40.29248047 C-18.03930111 42.69042793 -19.9832348 43.17218918 -24 43 C-25.76484854 39.62157566 -27.48021966 36.22033028 -29.1875 32.8125 C-29.94063477 31.37293945 -29.94063477 31.37293945 -30.70898438 29.90429688 C-31.16982422 28.97294922 -31.63066406 28.04160156 -32.10546875 27.08203125 C-32.54012451 26.22843018 -32.97478027 25.3748291 -33.42260742 24.49536133 C-34 22 -34 22 -32.8059082 19.24487305 C-31 17 -31 17 -28 16 C-25.36 21.61 -22.72 27.22 -20 33 C-16.15550908 31.07775454 -12.75087158 28.83715144 -9.25 26.375 C-8.64800781 25.95476562 -8.04601562 25.53453125 -7.42578125 25.1015625 C-5.94886957 24.07006863 -4.47420806 23.03535421 -3 22 C-3.87247183 17.82327317 -4.72062486 13.76460564 -6.1875 9.75 C-7.10653732 6.63941215 -7.17460807 5.02042076 -6 2 C-3.84898936 0.54286376 -2.59713506 0 0 0 Z " fill="#284D1F" transform="translate(554,245)"/>
<path d="M0 0 C0.66 0.33 1.32 0.66 2 1 C2.23461496 2.91043609 2.46220615 4.82214769 2.64453125 6.73828125 C3.01695143 9.10785583 3.70814971 11.03877282 4.625 13.25 C6.29753556 17.81146063 6.29753556 17.81146063 5 21 C3.55712891 22.47973633 3.55712891 22.47973633 1.7265625 23.83203125 C1.0665625 24.31994141 0.4065625 24.80785156 -0.2734375 25.31054688 C-0.96695313 25.80619141 -1.66046875 26.30183594 -2.375 26.8125 C-3.06078125 27.32748047 -3.7465625 27.84246094 -4.453125 28.37304688 C-5.11570312 28.85451172 -5.77828125 29.33597656 -6.4609375 29.83203125 C-7.06728027 30.27264893 -7.67362305 30.7132666 -8.29833984 31.16723633 C-10 32 -10 32 -13 31 C-14.07495117 29.23413086 -14.07495117 29.23413086 -15.04296875 26.96484375 C-15.39423828 26.15595703 -15.74550781 25.34707031 -16.10742188 24.51367188 C-16.46384766 23.66353516 -16.82027344 22.81339844 -17.1875 21.9375 C-17.55552734 21.08349609 -17.92355469 20.22949219 -18.30273438 19.34960938 C-19.2115121 17.23699623 -20.11006202 15.12060231 -21 13 C-16.53190313 8.88291285 -12.16272943 5.69131585 -6.6875 3.0625 C-6.06810547 2.74732422 -5.44871094 2.43214844 -4.81054688 2.10742188 C-3.2396455 1.33476354 -1.62206766 0.65850477 0 0 Z " fill="#457C35" transform="translate(546,247)"/>
<path d="M0 0 C4.28846906 3.16244645 8.47373844 6.39492543 12.5625 9.8125 C29.98023724 23.69350586 47.55674678 30.31101596 70 28 C79.20229907 26.30881773 89.79532799 22.40628543 97.01171875 16.296875 C99.6620114 14.56819689 101.16140344 14.86546629 104.25 15.3125 C105.58804688 15.49232422 105.58804688 15.49232422 106.953125 15.67578125 C107.62859375 15.78277344 108.3040625 15.88976562 109 16 C99.06380805 26.67908481 83.59999988 33.35210422 69.1015625 34.23828125 C41.36909091 34.93773267 21.755087 21.64045901 1.73046875 3.8125 C0 2 0 2 0 0 Z " fill="#79AECC" transform="translate(588,353)"/>
<path d="M0 0 C11.25 0 11.25 0 16.125 1 C17.52105469 1.2784375 17.52105469 1.2784375 18.9453125 1.5625 C19.62335937 1.706875 20.30140625 1.85125 21 2 C22.08091086 6.37511539 22.14947449 10.64616815 22.125 15.125 C22.13080078 16.19814453 22.13080078 16.19814453 22.13671875 17.29296875 C22.13079654 20.46134984 22.00896618 22.97310145 21 26 C14.39880225 25.37724549 8.37468479 23.83272188 2 22 C1.34 14.74 0.68 7.48 0 0 Z " fill="#68B2E2" transform="translate(627,212)"/>
<path d="M0 0 C7.18216433 2.27435204 14.0758202 5.03584181 21 8 C19.52869627 12.3573226 17.16919385 15.71934134 14.375 19.3125 C13.95476563 19.86228516 13.53453125 20.41207031 13.1015625 20.97851562 C12.07279961 22.32292168 11.0370991 23.66201413 10 25 C4.80300409 24.5103333 1.22246073 23.36524252 -3.25 20.6875 C-4.77367187 19.79611328 -4.77367187 19.79611328 -6.328125 18.88671875 C-8.85128685 17.10501235 -10.340329 15.57476358 -12 13 C-11.38511719 12.39671875 -10.77023437 11.7934375 -10.13671875 11.171875 C-9.32847656 10.37265625 -8.52023437 9.5734375 -7.6875 8.75 C-6.88699219 7.96109375 -6.08648438 7.1721875 -5.26171875 6.359375 C-3.31256349 4.32605933 -1.62578594 2.29398922 0 0 Z " fill="#857E2C" transform="translate(618,317)"/>
<path d="M0 0 C0.05414062 0.56460937 0.10828125 1.12921875 0.1640625 1.7109375 C1.38928451 5.06598467 3.59133601 6.4404448 6.375 8.625 C7.35210938 9.40101563 8.32921875 10.17703125 9.3359375 10.9765625 C11.18016947 12.37731347 13.07307233 13.71538155 15 15 C14.67 15.99 14.34 16.98 14 18 C12.56161448 17.20994338 11.12432585 16.41788955 9.6875 15.625 C8.48673828 14.96371094 8.48673828 14.96371094 7.26171875 14.2890625 C5.46472057 13.26486665 3.72099292 12.14732862 2 11 C0.34450469 10.61500109 -1.3222433 10.27206865 -3 10 C-3.34417969 11.22396484 -3.34417969 11.22396484 -3.6953125 12.47265625 C-5.29440082 16.79593995 -7.49108904 20.50717449 -9.875 24.4375 C-10.74778424 25.89429862 -11.62018445 27.35132739 -12.4921875 28.80859375 C-12.91209961 29.50710449 -13.33201172 30.20561523 -13.76464844 30.92529297 C-15.55185328 33.92680813 -17.27808775 36.96062466 -19 40 C-19.66 40 -20.32 40 -21 40 C-22.62514468 41.45833358 -22.62514468 41.45833358 -24 43 C-24 42.34 -24 41.68 -24 41 C-24.66 40.67 -25.32 40.34 -26 40 C-25.125 33.125 -25.125 33.125 -24 32 C-23.9071875 30.576875 -23.9071875 30.576875 -23.8125 29.125 C-22.6523627 20.43289436 -16.43263787 11.73316657 -10 6 C-6.76948119 3.79113868 -3.45500245 1.83525281 0 0 Z " fill="#79B2D3" transform="translate(640,265)"/>
<path d="M0 0 C18.91710968 6.16121903 32.58969093 17.28524966 42 35 C46.72188113 45.57320356 47.14363362 54.9976597 47.0625 66.4375 C47.05798828 67.64599609 47.05347656 68.85449219 47.04882812 70.09960938 C47.03710145 73.06645789 47.02068896 76.0332027 47 79 C46.34 79 45.68 79 45 79 C44.98598145 78.15574463 44.98598145 78.15574463 44.97167969 77.29443359 C44.52567278 55.83800308 40.9675203 38.54171976 25 23 C20.2504719 18.66347434 15.54541758 15.71420298 9.6875 13.0625 C5.63511419 11.147296 3.29672136 9.79245678 1.25 5.75 C0 2 0 2 0 0 Z " fill="#9FBD97" transform="translate(635,140)"/>
<path d="M0 0 C1 3 1 3 -0.125 6.25 C-3.00455247 11.01925877 -7.7838489 12.76391738 -12.609375 15.1875 C-26.84603313 22.79787946 -36.13593464 35.08344808 -41.0703125 50.30078125 C-43.03602324 58.11591279 -43.65071398 65.96642143 -44 74 C-44.66 74 -45.32 74 -46 74 C-46.58115205 53.81034713 -44.31448309 35.3254308 -30.625 19.5 C-21.6473238 10.36912113 -12.22331291 4.07443764 0 0 Z " fill="#BFDDB3" transform="translate(564,140)"/>
<path d="M0 0 C-1.40103451 3.28099409 -2.99346316 5.07414935 -5.75 7.3125 C-16.70888234 16.71146936 -24.12085261 29.51490555 -26 44 C-26.23831401 48.72024223 -26.38552079 53.44553767 -26.35888672 58.171875 C-26.45342574 64.75459182 -27.66380862 68.00993849 -32 73 C-37.29057974 65.06413039 -35.06479585 47.98689257 -33.3828125 38.78125 C-29.95057173 26.51022989 -15.26775423 0 0 0 Z " fill="#F9F09F" transform="translate(500,236)"/>
<path d="M0 0 C11.82020062 5.06580027 18.72486313 14.1940985 23.8125 25.8125 C25.73780227 31.30527412 25.74516997 37.23556901 26 43 C15.20126819 37.96059182 7.39212984 20.22645315 2 10 C-2.34055923 10.49324537 -4.56943537 11.3975027 -8 14 C-8.99 13.67 -9.98 13.34 -11 13 C-8.80107363 9.95533272 -6.99251669 7.99515786 -3.8125 5.9375 C-0.86725199 4.33186679 -0.86725199 4.33186679 -0.32421875 1.87890625 C-0.21722656 1.25886719 -0.11023438 0.63882812 0 0 Z " fill="#BBB57A" transform="translate(560,266)"/>
<path d="M0 0 C6.96368486 -1.02323533 11.79932199 -0.01521862 17.75 3.6875 C31.85917918 12.342824 46.98860241 15.85792045 63.43457031 12.50341797 C68.07634997 11.30248675 72.51916875 9.6934988 77 8 C78.32643115 7.6401816 79.65687874 7.29140037 81 7 C80 10 80 10 76.68359375 11.75390625 C75.27304024 12.36794323 73.8573815 12.97035211 72.4375 13.5625 C71.74591797 13.86607422 71.05433594 14.16964844 70.34179688 14.48242188 C56.08939226 20.57921006 38.61404283 21.64225664 24 16 C3.62402827 7.24805654 3.62402827 7.24805654 0 0 Z " fill="#D2CD9D" transform="translate(502,368)"/>
<path d="M0 0 C0.66 0.33 1.32 0.66 2 1 C-0.39591807 5.10728812 -2.76753417 6.47679363 -7.125 7.9375 C-22.21858885 13.01534314 -34.16249828 23.38296245 -41.37890625 37.5 C-46.32902921 48.18749439 -48.02137659 58.27229861 -48.5625 69.9375 C-48.60568359 70.81212891 -48.64886719 71.68675781 -48.69335938 72.58789062 C-48.79846901 74.72511995 -48.89963985 76.86254238 -49 79 C-48.34 79.33 -47.68 79.66 -47 80 C-48.65 80 -50.3 80 -52 80 C-56.05276697 65.91336641 -52.15677793 47.31011299 -45.45800781 34.58276367 C-35.47400054 17.07525224 -18.7742163 6.2580721 0 0 Z " fill="#7BB366" transform="translate(567,135)"/>
<path d="M0 0 C13.66296157 1.98733986 26.78944144 14.4339567 34.9296875 24.9375 C47.27647154 43.20142205 48.4338078 62.72265526 45 84 C44.01 84 43.02 84 42 84 C42.02094727 83.16452637 42.04189453 82.32905273 42.06347656 81.46826172 C42.13263633 78.29610469 42.18226874 75.12433814 42.21972656 71.95166016 C42.2491639 69.93235356 42.30005076 67.91339535 42.3515625 65.89453125 C42.52110763 48.68570034 37.21881859 32.67393032 25.21875 20.05078125 C18.32176804 13.67592997 10.48803063 8.95611295 2.23828125 4.54296875 C1.49964844 4.03378906 0.76101563 3.52460938 0 3 C0 2.01 0 1.02 0 0 Z " fill="#3383B0" transform="translate(691,227)"/>
<path d="M0 0 C6.19339263 1.29029013 10.15289443 3.9964167 15 8 C13.92598892 10.91517292 13.22189824 12.77810176 11 15 C8.41796875 15.125 8.41796875 15.125 5.1875 15 C-9.13432818 14.87450753 -19.45875792 18.54163582 -32 25 C-33.20272819 22.59454362 -33.10071472 21.05003047 -33.0625 18.375 C-33.05347656 17.55773437 -33.04445313 16.74046875 -33.03515625 15.8984375 C-33.02355469 15.27195312 -33.01195312 14.64546875 -33 14 C-32.67 14.66 -32.34 15.32 -32 16 C-28.99810728 15.57331968 -25.99895388 15.13401091 -23 14.6875 C-22.16082031 14.56955078 -21.32164062 14.45160156 -20.45703125 14.33007812 C-11.19173179 13.0693013 -11.19173179 13.0693013 -3.40234375 8.40112305 C-2 7 -2 7 0 7 C-0.495 5.515 -0.495 5.515 -1 4 C-0.5625 1.8125 -0.5625 1.8125 0 0 Z " fill="#7EB6D7" transform="translate(716,314)"/>
<path d="M0 0 C3.40276432 1.13425477 4.1105078 2.08405449 6.3125 4.8125 C8.50846474 7.43273818 10.41961293 9.46411766 13.375 11.1875 C16 13 16 13 16.40625 15.0703125 C17.4214941 20.0797406 20.02003282 24.47571787 22.29296875 29.02539062 C22.65261719 29.76337891 23.01226563 30.50136719 23.3828125 31.26171875 C23.71684082 31.93162842 24.05086914 32.60153809 24.39501953 33.29174805 C24.59466309 33.85547119 24.79430664 34.41919434 25 35 C24.67 35.66 24.34 36.32 24 37 C23.49662109 36.49138428 22.99324219 35.98276855 22.47460938 35.45874023 C20.15248022 33.11559272 17.8262723 30.77653398 15.5 28.4375 C14.70851563 27.63763672 13.91703125 26.83777344 13.1015625 26.01367188 C8.77181615 21.66618066 4.38093631 17.47145806 -0.29101562 13.49243164 C-1.93453835 12.05716672 -3.47619362 10.56085144 -5 9 C-3.90931332 5.22454612 -3.0916909 2.52956528 0 0 Z " fill="#6EA55A" transform="translate(570,168)"/>
<path d="M0 0 C5 6.184573 5 6.184573 5 9 C4.2265625 9.10957031 3.453125 9.21914063 2.65625 9.33203125 C1.6146875 9.49058594 0.573125 9.64914062 -0.5 9.8125 C-1.5209375 9.96332031 -2.541875 10.11414063 -3.59375 10.26953125 C-6.32118238 10.85442787 -8.23830972 11.51350027 -10.734375 12.6171875 C-15.80518702 14.59949129 -20.44319092 13.95812445 -25.75 13.3125 C-26.68199219 13.22033203 -27.61398437 13.12816406 -28.57421875 13.03320312 C-32.84847009 12.57021033 -36.20610193 12.12117341 -40 10 C-30.66666667 7.33333333 -21.33333333 4.66666667 -12 2 C-10.75871338 1.64276855 -9.51742676 1.28553711 -8.23852539 0.91748047 C-2.59215695 -0.68214657 -2.59215695 -0.68214657 0 0 Z " fill="#2F80AC" transform="translate(702,291)"/>
<path d="M0 0 C3 1 3 1 4.75 3.3125 C6 6 6 6 5.92578125 7.8046875 C4.51890355 11.14082788 2.00607148 13.34650042 -0.5625 15.8125 C-1.10608154 16.34512451 -1.64966309 16.87774902 -2.2097168 17.42651367 C-5.75828608 20.8784518 -9.4055322 24.18937856 -13.17578125 27.3984375 C-16.26745749 30.11275711 -19.13273782 33.05209608 -22 36 C-23 33 -23 33 -21.41796875 29.3828125 C-20.68444507 27.95836543 -19.94049339 26.53925154 -19.1875 25.125 C-18.450044 23.71186442 -17.71432355 22.29782157 -16.98046875 20.8828125 C-16.62927979 20.21290283 -16.27809082 19.54299316 -15.91625977 18.8527832 C-14.89543386 16.8751059 -14.89543386 16.8751059 -13.9765625 14.17578125 C-12.79412998 11.5413216 -11.57895418 10.6400367 -9.1875 9.0625 C-5.40302739 6.4085438 -2.79501026 3.66845097 0 0 Z " fill="#6EA55A" transform="translate(629,168)"/>
<path d="M0 0 C7.54407392 6.97201144 15.6457348 17.32198062 16.7421875 27.73828125 C17.19162111 31.68103974 18.67790518 35.27409641 20 39 C16.37 39 12.74 39 9 39 C7.71026987 34.25155211 6.42878235 29.50098424 5.15478516 24.74829102 C4.72050554 23.13277731 4.28400455 21.51785901 3.84521484 19.90356445 C3.2138296 17.57917908 2.59054112 15.25274893 1.96875 12.92578125 C1.67345398 11.84892815 1.67345398 11.84892815 1.37219238 10.75032043 C0.40168529 7.0859944 -0.23295983 3.79530382 0 0 Z " fill="#2F80AD" transform="translate(657,312)"/>
<path d="M0 0 C1.35666085 4.06998256 0.18010634 7.15115872 -0.87109375 11.16796875 C-1.0722731 11.96278152 -1.27345245 12.7575943 -1.48072815 13.57649231 C-2.12528605 16.11552982 -2.78123604 18.65146571 -3.4375 21.1875 C-3.87640426 22.90801115 -4.31456459 24.62871227 -4.75195312 26.34960938 C-5.82601435 30.56865929 -6.91030187 34.78496297 -8 39 C-11.63 39 -15.26 39 -19 39 C-18.28385417 36.68880208 -17.56770833 34.37760417 -16.8515625 32.06640625 C-15.98910031 29.20228715 -15.98910031 29.20228715 -15.70263672 27.01538086 C-14.54839975 19.93056443 -11.09293033 15.12961786 -6.875 9.4375 C-6.21628906 8.52419922 -5.55757812 7.61089844 -4.87890625 6.66992188 C-3.26543054 4.43677796 -1.63922984 2.21426937 0 0 Z " fill="#CFC038" transform="translate(542,312)"/>
<path d="M0 0 C5.07394597 1.38058795 10.14587334 2.76828304 15.21606445 4.16259766 C16.94111386 4.63591164 18.66669836 5.10727988 20.39282227 5.57666016 C22.87399287 6.25172124 25.35315424 6.93375901 27.83203125 7.6171875 C28.60400345 7.82560272 29.37597565 8.03401794 30.17134094 8.24874878 C33.53046768 9.18142872 36.07486785 10.0499119 39 12 C34.98318252 12.5941028 30.96152597 13.14455813 26.9375 13.6875 C25.2369043 13.93983398 25.2369043 13.93983398 23.50195312 14.19726562 C16.82053161 15.07383696 12.93556104 15.17762359 7 12 C3.73556342 11.23753261 3.73556342 11.23753261 0.5625 10.8125 C-0.48808594 10.65394531 -1.53867187 10.49539063 -2.62109375 10.33203125 C-3.40613281 10.22246094 -4.19117188 10.11289062 -5 10 C-3.35 6.7 -1.7 3.4 0 0 Z " fill="#C6B836" transform="translate(498,290)"/>
<path d="M0 0 C-3.06388701 4.46452107 -6.16476484 8.16476484 -10 12 C-10.639375 12.99 -11.27875 13.98 -11.9375 15 C-14.3336329 18.48528421 -16.45208363 20.68020853 -20 23 C-22.81017982 23.40072961 -25.14150405 23.24642206 -28 23 C-27.69782935 16.95658699 -25.07714953 13.23487291 -21 9 C-13.96986952 3.2134304 -9.26138634 -0.17474314 0 0 Z " fill="#F7F1B9" transform="translate(488,314)"/>
<path d="M0 0 C5.47576326 0.3422352 8.96986654 3.60944795 13 7 C13.60199219 7.5053125 14.20398438 8.010625 14.82421875 8.53125 C22.80560211 15.84901272 29.49671748 26.99830657 30.11132812 37.99121094 C30.24067032 42.66630555 30.15655251 47.32661759 30 52 C27.525 49.525 27.525 49.525 25 47 C25.66 47 26.32 47 27 47 C24.81661398 31.90782294 20.78145123 19.53015331 9 9 C6.10498633 7.05683174 3.17901709 5.4279273 0 4 C0 2.68 0 1.36 0 0 Z " fill="#857D2D" transform="translate(559,262)"/>
<path d="M0 0 C2.475 0.495 2.475 0.495 5 1 C5 8 5 8 3.59375 9.5 C-5.34565454 15.90434952 -16.18781536 17.25275237 -27 17 C-26.67 14.69 -26.34 12.38 -26 10 C-23 10 -23 10 -20.75 10.625 C-17.82936692 11.21592175 -17.82936692 11.21592175 -14.4375 9.9375 C-11 9 -11 9 -8.5625 9.875 C-8.046875 10.24625 -7.53125 10.6175 -7 11 C-7 10.34 -7 9.68 -7 9 C-5.28515625 7.52734375 -5.28515625 7.52734375 -3.0625 5.9375 C-0.41985962 4.10094469 -0.41985962 4.10094469 2 2 C1.34 1.34 0.68 0.68 0 0 Z " fill="#8BBBD7" transform="translate(711,313)"/>
<path d="M0 0 C3.99500618 1.3697164 6.80009492 3.25722422 10 6 C8.92598892 8.91517292 8.22189824 10.77810176 6 13 C3.93701172 13.22705078 3.93701172 13.22705078 1.4296875 13.1953125 C0.53378906 13.18886719 -0.36210938 13.18242187 -1.28515625 13.17578125 C-2.22230469 13.15902344 -3.15945313 13.14226562 -4.125 13.125 C-5.06988281 13.11597656 -6.01476562 13.10695313 -6.98828125 13.09765625 C-9.32577292 13.07404522 -11.66276123 13.04111516 -14 13 C-14 12.67 -14 12.34 -14 12 C-12.453125 11.7215625 -12.453125 11.7215625 -10.875 11.4375 C-6.18638618 10.122401 -3.62961733 6.96207443 -1 3 C-0.67 2.01 -0.34 1.02 0 0 Z " fill="#67A5C9" transform="translate(721,316)"/>
<path d="M0 0 C4.62 0 9.24 0 14 0 C14.33 1.32 14.66 2.64 15 4 C13.91332031 4.56267578 13.91332031 4.56267578 12.8046875 5.13671875 C7.33957901 8.02958284 2.65015986 10.94601448 -2 15 C-2.66 15 -3.32 15 -4 15 C-4.05395478 13.37536158 -4.09277195 11.75021459 -4.125 10.125 C-4.14820313 9.22007812 -4.17140625 8.31515625 -4.1953125 7.3828125 C-4 5 -4 5 -2 3 C0.625 2.375 0.625 2.375 3 2 C2.01 1.34 1.02 0.68 0 0 Z " fill="#E8783A" transform="translate(592,215)"/>
<path d="M0 0 C0.66 0 1.32 0 2 0 C2 0.99 2 1.98 2 3 C2.69996094 2.94070313 3.39992188 2.88140625 4.12109375 2.8203125 C7.69348159 3.04328379 9.90690658 4.20744242 13.0625 5.875 C14.08472656 6.40867187 15.10695313 6.94234375 16.16015625 7.4921875 C17.56587891 8.23855469 17.56587891 8.23855469 19 9 C20.33113315 9.671049 21.66347698 10.33975122 23 11 C20.29730077 13.70269923 17.5747262 14.70570258 14 16 C11.9765625 15.859375 11.9765625 15.859375 10 15 C8.296875 13.00390625 8.296875 13.00390625 6.75 10.5625 C6.22921875 9.75941406 5.7084375 8.95632813 5.171875 8.12890625 C4 6 4 6 4 4 C3.01 4.33 2.02 4.66 1 5 C0.67 3.35 0.34 1.7 0 0 Z " fill="#E77639" transform="translate(547,293)"/>
<path d="M0 0 C-1.01055882 5.91898736 -4.27760038 8.23105663 -8.80859375 11.6796875 C-11 13 -11 13 -14 13 C-17 7.375 -17 7.375 -17 4 C-16.13375 4.0825 -15.2675 4.165 -14.375 4.25 C-8.64447884 3.82551695 -6.01329031 -0.70744592 0 0 Z " fill="#CEC257" transform="translate(475,342)"/>
<path d="M0 0 C4.26511313 1.70604525 6.61418999 3.09787714 10 6 C9.54979057 11.85272256 6.96160773 16.08220119 4 21 C3.34 21 2.68 21 2 21 C1.34 14.07 0.68 7.14 0 0 Z " fill="#EB823C" transform="translate(642,283)"/>
<path d="M0 0 C0.66 0.33 1.32 0.66 2 1 C1.35264702 6.279118 -0.75562395 8.30295798 -4.72265625 11.6171875 C-8.33061368 13.8079541 -10.87755972 13.51530504 -15 13 C-14.38461538 7.46153846 -14.38461538 7.46153846 -12.4375 5.125 C-11.963125 4.75375 -11.48875 4.3825 -11 4 C-11 4.66 -11 5.32 -11 6 C-10.34 6.33 -9.68 6.66 -9 7 C-9.33 7.33 -9.66 7.66 -10 8 C-9.34 8.33 -8.68 8.66 -8 9 C-7.79375 8.443125 -7.5875 7.88625 -7.375 7.3125 C-5.44999226 4.07498698 -2.96149098 2.31768859 0 0 Z " fill="#FAF1A2" transform="translate(475,324)"/>
<path d="M0 0 C2.475 0.495 2.475 0.495 5 1 C5 4 5 4 2.75 6.5 C1.8425 7.325 0.935 8.15 0 9 C-0.61875 9.5775 -1.2375 10.155 -1.875 10.75 C-4.88972336 12.52336668 -7.52161321 12.66338192 -11 13 C-11.825 13.103125 -12.65 13.20625 -13.5 13.3125 C-17.87412485 13.83322915 -21.70492524 14.28852243 -26 13 C-25.67 11.68 -25.34 10.36 -25 9 C-23.4840625 9.556875 -23.4840625 9.556875 -21.9375 10.125 C-17.83031202 11.33886527 -15.0622157 10.22632927 -11 9 C-8.5625 9.875 -8.5625 9.875 -7 11 C-7 10.34 -7 9.68 -7 9 C-5.28515625 7.52734375 -5.28515625 7.52734375 -3.0625 5.9375 C-0.41985962 4.10094469 -0.41985962 4.10094469 2 2 C1.34 1.34 0.68 0.68 0 0 Z " fill="#9BC8E3" transform="translate(711,313)"/>
<path d="M0 0 C0.99386719 0.00902344 1.98773438 0.01804687 3.01171875 0.02734375 C4.15060547 0.04474609 4.15060547 0.04474609 5.3125 0.0625 C2.14297153 3.32258643 -1.08687989 6.28487877 -4.6875 9.0625 C-4.6875 8.4025 -4.6875 7.7425 -4.6875 7.0625 C-5.3475 7.7225 -6.0075 8.3825 -6.6875 9.0625 C-6.6875 9.7225 -6.6875 10.3825 -6.6875 11.0625 C-7.3475 11.0625 -8.0075 11.0625 -8.6875 11.0625 C-8.6875 11.7225 -8.6875 12.3825 -8.6875 13.0625 C-10.31376404 14.44482443 -11.9800002 15.78187515 -13.6875 17.0625 C-14.3475 16.7325 -15.0075 16.4025 -15.6875 16.0625 C-12.0625 10.1875 -12.0625 10.1875 -8.6875 9.0625 C-7.52083333 7.14583333 -7.52083333 7.14583333 -6.6875 5.0625 C-6.3575 4.4025 -6.0275 3.7425 -5.6875 3.0625 C-6.6775 2.4025 -7.6675 1.7425 -8.6875 1.0625 C-5.53819107 0.01273036 -3.29935544 -0.03881595 0 0 Z " fill="#E6DE95" transform="translate(491.6875,311.9375)"/>
<path d="M0 0 C0.66 0.33 1.32 0.66 2 1 C2.4140625 3.06640625 2.4140625 3.06640625 2.625 5.5625 C2.69976563 6.38878906 2.77453125 7.21507812 2.8515625 8.06640625 C2.90054688 8.70449219 2.94953125 9.34257812 3 10 C4.32 10.33 5.64 10.66 7 11 C2.38 11.33 -2.24 11.66 -7 12 C-4.75 5.25 -4.75 5.25 -2.375 2.625 C-1.59125 1.75875 -0.8075 0.8925 0 0 Z " fill="#365F27" transform="translate(554,196)"/>
<path d="M0 0 C3.00765886 2.84936103 5.27845212 5.23511958 7 9 C4.87527424 9.05386629 2.75016348 9.09273071 0.625 9.125 C-1.15003906 9.15980469 -1.15003906 9.15980469 -2.9609375 9.1953125 C-6 9 -6 9 -8 7 C-5.36 4.69 -2.72 2.38 0 0 Z " fill="#797228" transform="translate(563,342)"/>
<path d="M0 0 C0.99 0.33 1.98 0.66 3 1 C2.34 5.95 1.68 10.9 1 16 C-1.31 16 -3.62 16 -6 16 C-5.23757784 12.38944909 -3.87526626 9.14165375 -2.4375 5.75 C-1.98246094 4.67234375 -1.52742187 3.5946875 -1.05859375 2.484375 C-0.70925781 1.66453125 -0.35992188 0.8446875 0 0 Z " fill="#A8C79E" transform="translate(639,190)"/>
<path d="M0 0 C3.00825564 1.50412782 3.30662971 3.86048301 4.40234375 6.921875 C5.10104707 9.35135321 5.23571669 11.48568864 5 14 C2.03 14.66 -0.94 15.32 -4 16 C-2.68 10.72 -1.36 5.44 0 0 Z " fill="#417832" transform="translate(634,148)"/>
<path d="M0 0 C1.84790538 3.31016094 2.74541487 6.57173491 3.625 10.25 C3.88539063 11.32765625 4.14578125 12.4053125 4.4140625 13.515625 C4.60742188 14.33546875 4.80078125 15.1553125 5 16 C0.545 15.01 0.545 15.01 -4 14 C-3.46148032 8.72250715 -2.22656164 4.74354436 0 0 Z " fill="#417832" transform="translate(565,148)"/>
<path d="M0 0 C0.66 0 1.32 0 2 0 C3.28006797 1.78398614 4.47660351 3.62853906 5.625 5.5 C6.57246094 7.03140625 6.57246094 7.03140625 7.5390625 8.59375 C8.02117188 9.3878125 8.50328125 10.181875 9 11 C12.02266703 10.40348694 15.01725858 9.77330333 18 9 C18.33 9.66 18.66 10.32 19 11 C17.56570999 11.67354499 16.12742943 12.33859701 14.6875 13 C13.88699219 13.37125 13.08648438 13.7425 12.26171875 14.125 C10 15 10 15 7 15 C5.82823482 12.87767021 4.66245215 10.75242209 3.5 8.625 C3.16613281 8.02171875 2.83226562 7.4184375 2.48828125 6.796875 C0 2.2265625 0 2.2265625 0 0 Z " fill="#E05C2D" transform="translate(549,297)"/>
<path d="M0 0 C1.64826111 2.96687001 2.44271087 5.65626525 3 9 C-5.03571429 11.27678571 -5.03571429 11.27678571 -9 10 C-8.27683594 9.29423828 -8.27683594 9.29423828 -7.5390625 8.57421875 C-6.90742187 7.95160156 -6.27578125 7.32898438 -5.625 6.6875 C-4.68527344 5.76517578 -4.68527344 5.76517578 -3.7265625 4.82421875 C-1.81913393 2.91187472 -1.81913393 2.91187472 0 0 Z " fill="#A1962F" transform="translate(520,353)"/>
<path d="M0 0 C1.32 0.99 2.64 1.98 4 3 C2.92598892 5.91517292 2.22189824 7.77810176 0 10 C-2.3828125 10.1953125 -2.3828125 10.1953125 -5.125 10.125 C-6.49011719 10.09792969 -6.49011719 10.09792969 -7.8828125 10.0703125 C-8.58148437 10.04710937 -9.28015625 10.02390625 -10 10 C-10 9.67 -10 9.34 -10 9 C-8.35 9 -6.7 9 -5 9 C-4.9175 8.443125 -4.835 7.88625 -4.75 7.3125 C-3.77389987 4.30285794 -2.04811186 2.37845248 0 0 Z " fill="#418AB1" transform="translate(727,319)"/>
<path d="M0 0 C4.67105792 1.55701931 8.08705685 4.08447373 12 7 C11.49287967 10.71888239 10.88391785 13.73454239 9 17 C8.01 17 7.02 17 6 17 C6.66 14.03 7.32 11.06 8 8 C5.03 6.02 2.06 4.04 -1 2 C-0.67 1.34 -0.34 0.68 0 0 Z " fill="#E56E33" transform="translate(643,281)"/>
<path d="M0 0 C0.66 0.33 1.32 0.66 2 1 C0.92155398 3.74513533 0.0250906 4.9807861 -2.3515625 6.80078125 C-5.16814221 9.13962251 -6.77158345 11.33328465 -8.6875 14.4375 C-9.26886719 15.36433594 -9.85023438 16.29117187 -10.44921875 17.24609375 C-11.87872681 19.78464082 -12.99424255 22.27008691 -14 25 C-15.30310976 21.09067073 -14.41923843 20.07819014 -12.625 16.4375 C-9.32496299 10.04756985 -5.05039355 5.07283975 0 0 Z " fill="#EEE69C" transform="translate(521,246)"/>
<path d="M0 0 C0.33 1.32 0.66 2.64 1 4 C-0.59679804 5.3421492 -2.20270197 6.67347115 -3.8125 8 C-5.15248047 9.11375 -5.15248047 9.11375 -6.51953125 10.25 C-9 12 -9 12 -12 12 C-12.33 11.01 -12.66 10.02 -13 9 C-12.39671875 8.60167969 -11.7934375 8.20335937 -11.171875 7.79296875 C-10.37265625 7.26316406 -9.5734375 6.73335938 -8.75 6.1875 C-7.96109375 5.66542969 -7.1721875 5.14335937 -6.359375 4.60546875 C-4.18907519 3.12865878 -2.08586232 1.59310127 0 0 Z " fill="#CABD42" transform="translate(473,343)"/>
<path d="M0 0 C-3.05419844 4.45040344 -6.0747975 8.29909479 -10 12 C-10.66 11.67 -11.32 11.34 -12 11 C-11.67 10.2575 -11.34 9.515 -11 8.75 C-9.77217129 5.86116688 -9.77217129 5.86116688 -10 2 C-6.3558226 -0.4294516 -4.28758728 -0.16179575 0 0 Z " fill="#EBE5B0" transform="translate(488,314)"/>
<path d="M0 0 C0.33 1.32 0.66 2.64 1 4 C6.445 3.01 6.445 3.01 12 2 C11 6 11 6 8.25 7.8125 C4.83847682 9.05901808 3.39270125 9.09763864 0 8 C0 5.36 0 2.72 0 0 Z " fill="#E1D674" transform="translate(458,338)"/>
<path d="M0 0 C0.33 0.66 0.66 1.32 1 2 C3.34386809 2.91031272 3.34386809 2.91031272 6.0625 3.625 C6.98160156 3.88539063 7.90070312 4.14578125 8.84765625 4.4140625 C9.55792969 4.60742188 10.26820313 4.80078125 11 5 C11.33 6.65 11.66 8.3 12 10 C7.71 8.35 3.42 6.7 -1 5 C-0.67 3.35 -0.34 1.7 0 0 Z " fill="#01527A" transform="translate(679,267)"/>
<path d="M0 0 C0.33 0 0.66 0 1 0 C1 1.65 1 3.3 1 5 C2.258125 4.87625 3.51625 4.7525 4.8125 4.625 C5.87404297 4.52058594 5.87404297 4.52058594 6.95703125 4.4140625 C9.29988142 4.07334609 9.29988142 4.07334609 12 2 C12.99 2.66 13.98 3.32 15 4 C8.07 7.465 8.07 7.465 1 11 C-0.20272819 8.59454362 -0.10071472 7.05003047 -0.0625 4.375 C-0.05347656 3.55773437 -0.04445313 2.74046875 -0.03515625 1.8984375 C-0.02355469 1.27195312 -0.01195312 0.64546875 0 0 Z " fill="#5B9CBF" transform="translate(683,328)"/>
<path d="M0 0 C-3.6649267 2.44328447 -5.69043086 2 -10 2 C-10.66 2.66 -11.32 3.32 -12 4 C-14.68839385 4.26991906 -17.29141936 4.08737357 -20 4 C-20 3.01 -20 2.02 -20 1 C-17.60533136 0.63552842 -15.2098929 0.2831706 -12.8125 -0.0625 C-11.80219727 -0.2181543 -11.80219727 -0.2181543 -10.77148438 -0.37695312 C-6.92138923 -0.92160073 -3.75911331 -1.04379263 0 0 Z " fill="#74ADCD" transform="translate(704,329)"/>
<path d="M0 0 C2.01822917 0.06510417 4.03645833 0.13020833 6.0546875 0.1953125 C3.17974279 4.17600517 0.23351421 6.63103247 -3.9453125 9.1953125 C-4.0703125 5.8203125 -4.0703125 5.8203125 -3.9453125 2.1953125 C-1.9453125 0.1953125 -1.9453125 0.1953125 0 0 Z " fill="#EE9971" transform="translate(591.9453125,217.8046875)"/>
<path d="M0 0 C0.99 0.33 1.98 0.66 3 1 C3 1.66 3 2.32 3 3 C-2.2808951 7.60855892 -7.04242456 9.74699726 -14 10 C-13 8 -13 8 -11.07421875 7.32421875 C-9.89279297 7.00904297 -9.89279297 7.00904297 -8.6875 6.6875 C-4.43397046 5.37351158 -2.40538608 3.86953413 0 0 Z " fill="#8EC1E1" transform="translate(713,318)"/>
<path d="M0 0 C1.98 0.495 1.98 0.495 4 1 C3.34 4.63 2.68 8.26 2 12 C1.01 12 0.02 12 -1 12 C-1.08159574 7.83861737 -0.98248524 4.0527516 0 0 Z " fill="#61994F" transform="translate(641,194)"/>
<path d="M0 0 C2 1.25 2 1.25 4 3 C4 4.32 4 5.64 4 7 C1.36 7.33 -1.28 7.66 -4 8 C-2.87548273 5.0280615 -1.77706209 2.66559313 0 0 Z " fill="#27759C" transform="translate(731,322)"/>
<path d="M0 0 C4.75 0.875 4.75 0.875 7 2 C6.34 3.32 5.68 4.64 5 6 C2.69 6 0.38 6 -2 6 C-1.34 4.02 -0.68 2.04 0 0 Z " fill="#287193" transform="translate(677,272)"/>
<path d="M0 0 C0.33 0.66 0.66 1.32 1 2 C1.78375 1.79375 2.5675 1.5875 3.375 1.375 C4.674375 1.189375 4.674375 1.189375 6 1 C6.66 1.66 7.32 2.32 8 3 C7.67 3.99 7.34 4.98 7 6 C4.69 6.33 2.38 6.66 0 7 C0 4.69 0 2.38 0 0 Z " fill="#ECE38C" transform="translate(459,335)"/>
<path d="M0 0 C1.48117801 0.28127421 2.95993249 0.57533732 4.4375 0.875 C5.67306641 1.11863281 5.67306641 1.11863281 6.93359375 1.3671875 C7.61550781 1.57601563 8.29742188 1.78484375 9 2 C9.33 2.66 9.66 3.32 10 4 C7.82311446 5.32168051 6.44782067 6.0131712 3.875 5.9375 C2 5 2 5 0.75 2.4375 C0.5025 1.633125 0.255 0.82875 0 0 Z " fill="#EE9A7C" transform="translate(555,303)"/>
<path d="M0 0 C4.56146063 0.54303103 8.03644997 1.65790225 12 4 C12.99 5.485 12.99 5.485 14 7 C12.22631108 6.77113691 10.45598923 6.5160762 8.6875 6.25 C7.20830078 6.04117187 7.20830078 6.04117187 5.69921875 5.828125 C2.52111232 4.85307643 1.63606218 3.83658563 0 1 C0 0.67 0 0.34 0 0 Z " fill="#EA8355" transform="translate(552,299)"/>
<path d="M0 0 C1.65 0.99 3.3 1.98 5 3 C4.50351065 7.46840411 4.31012244 8.68987756 1 12 C0.67 8.04 0.34 4.08 0 0 Z " fill="#F0A176" transform="translate(647,286)"/>
<path d="M0 0 C0.66 0 1.32 0 2 0 C0.8905928 3.48670834 -0.26337666 6.77484237 -2 10 C-3.65 10 -5.3 10 -7 10 C-5.69425831 7.08719163 -4.2925792 5.19705507 -2 3 C-1.34 2.01 -0.68 1.02 0 0 Z " fill="#EBDD5E" transform="translate(477,332)"/>
<path d="M0 0 C0.99 0.33 1.98 0.66 3 1 C3.84681133 6.08086796 4.09038099 10.84828377 4 16 C3.34 15.67 2.68 15.34 2 15 C1.3671875 12.63671875 1.3671875 12.63671875 0.875 9.6875 C0.70742188 8.72199219 0.53984375 7.75648438 0.3671875 6.76171875 C0 4 0 4 0 0 Z " fill="#EC8D54" transform="translate(644,284)"/>
<path d="M0 0 C1.79244141 0.01740234 1.79244141 0.01740234 3.62109375 0.03515625 C5.41740234 0.04869141 5.41740234 0.04869141 7.25 0.0625 C8.17683594 0.07410156 9.10367188 0.08570313 10.05859375 0.09765625 C10.05859375 0.42765625 10.05859375 0.75765625 10.05859375 1.09765625 C9.383125 1.195625 8.70765625 1.29359375 8.01171875 1.39453125 C1.0989197 2.46844711 1.0989197 2.46844711 -3.94140625 7.09765625 C-3.98394981 5.09810879 -3.98221408 3.09723989 -3.94140625 1.09765625 C-2.94140625 0.09765625 -2.94140625 0.09765625 0 0 Z " fill="#E15F29" transform="translate(589.94140625,215.90234375)"/>
<path d="M0 0 C0.33 0.66 0.66 1.32 1 2 C1.66 2.33 2.32 2.66 3 3 C2.34 4.98 1.68 6.96 1 9 C-0.32 9 -1.64 9 -3 9 C-2.5020163 5.26512223 -2.12508244 3.18762365 0 0 Z " fill="#F5EDA9" transform="translate(463,328)"/>
<path d="M0 0 C-1 3 -1 3 -3.72265625 4.60546875 C-4.82480469 5.12753906 -5.92695313 5.64960938 -7.0625 6.1875 C-8.16722656 6.71730469 -9.27195312 7.24710938 -10.41015625 7.79296875 C-11.26480469 8.19128906 -12.11945313 8.58960938 -13 9 C-12.80859375 7.171875 -12.80859375 7.171875 -12 5 C-9.78515625 3.515625 -9.78515625 3.515625 -7.0625 2.25 C-6.16660156 1.82203125 -5.27070313 1.3940625 -4.34765625 0.953125 C-2 0 -2 0 0 0 Z " fill="#E0D56D" transform="translate(513,229)"/>
<path d="M0 0 C-0.78375 0.61875 -1.5675 1.2375 -2.375 1.875 C-4.96837647 3.89858661 -4.96837647 3.89858661 -7 6 C-8.32 6 -9.64 6 -11 6 C-10.03628506 3.59071265 -9.34789837 2.23992991 -7.1875 0.75 C-4.67678635 -0.11081611 -2.63651351 -0.14647297 0 0 Z " fill="#DBCE53" transform="translate(475,342)"/>
<path d="M0 0 C0.66 0.33 1.32 0.66 2 1 C1.35330586 2.34313399 0.68096422 3.67391178 0 5 C-0.433125 5.9075 -0.86625 6.815 -1.3125 7.75 C-1.869375 8.4925 -2.42625 9.235 -3 10 C-5.6875 10.3125 -5.6875 10.3125 -8 10 C-7.59007812 9.52949219 -7.18015625 9.05898438 -6.7578125 8.57421875 C-6.21898437 7.95160156 -5.68015625 7.32898438 -5.125 6.6875 C-4.59132813 6.07261719 -4.05765625 5.45773437 -3.5078125 4.82421875 C-1.8359553 2.86501788 -1.8359553 2.86501788 0 0 Z " fill="#589ABE" transform="translate(725,318)"/>
<path d="M0 0 C3.96 0.99 3.96 0.99 8 2 C7.67 3.32 7.34 4.64 7 6 C2.545 5.01 2.545 5.01 -2 4 C-1.34 2.68 -0.68 1.36 0 0 Z " fill="#126287" transform="translate(684,274)"/>
<path d="M0 0 C0.66 0 1.32 0 2 0 C1.65986985 5.44208234 -1.70296528 8.93668198 -5 13 C-5.66 12.01 -6.32 11.02 -7 10 C-5.625 8 -5.625 8 -4 6 C-3.34 6 -2.68 6 -2 6 C-2 5.34 -2 4.68 -2 4 C-1.34 4 -0.68 4 0 4 C-0.33 3.01 -0.66 2.02 -1 1 C-0.67 0.67 -0.34 0.34 0 0 Z " fill="#E4D976" transform="translate(485,319)"/>
<path d="M0 0 C-1.51671964 4.55015893 -5.16891053 6.50057264 -9 9 C-9.66 8.67 -10.32 8.34 -11 8 C-9.54712339 6.66072279 -8.08752741 5.32873153 -6.625 4 C-5.81289063 3.2575 -5.00078125 2.515 -4.1640625 1.75 C-2 0 -2 0 0 0 Z " fill="#F6EB80" transform="translate(478,329)"/>
<path d="M0 0 C1.65 0 3.3 0 5 0 C1.83047153 3.26008643 -1.39937989 6.22237877 -5 9 C-4.67 7.68 -4.34 6.36 -4 5 C-3.34 5 -2.68 5 -2 5 C-1.34 3.35 -0.68 1.7 0 0 Z " fill="#D3CB87" transform="translate(492,312)"/>
<path d="M0 0 C0.66 0.33 1.32 0.66 2 1 C0.50164772 5.66154042 -2.88463591 6.86610751 -7 9 C-5.64978174 4.58110387 -3.73884332 2.65654657 0 0 Z " fill="#B7AD40" transform="translate(549,277)"/>
<path d="M0 0 C0.33 0.66 0.66 1.32 1 2 C-4.70731707 9.13414634 -4.70731707 9.13414634 -8 11 C-8.99 10.67 -9.98 10.34 -11 10 C-10.37351562 9.52949219 -9.74703125 9.05898438 -9.1015625 8.57421875 C-8.28429687 7.95160156 -7.46703125 7.32898438 -6.625 6.6875 C-5.81289063 6.07261719 -5.00078125 5.45773437 -4.1640625 4.82421875 C-1.80220611 3.00519317 -1.80220611 3.00519317 0 0 Z " fill="#F9EE90" transform="translate(476,326)"/>
<path d="M0 0 C-0.66 1.65 -1.32 3.3 -2 5 C-5.49530638 4.21073727 -6.46282832 3.53717168 -9 1 C-5.8035914 -0.06546953 -3.34252724 -0.07427838 0 0 Z " fill="#DBD496" transform="translate(492,312)"/>
<path d="M0 0 C3.226345 3.80247803 5.77535219 7.55070439 8 12 C7.67 12.99 7.34 13.98 7 15 C6.0115904 13.44333045 5.03464918 11.87937574 4.0625 10.3125 C3.51722656 9.44238281 2.97195313 8.57226562 2.41015625 7.67578125 C1.02832828 5.05375311 0.41519827 2.91689925 0 0 Z " fill="#98C5DF" transform="translate(685,253)"/>
<path d="M0 0 C3.43927579 1.2419607 6.25207819 2.55740284 9 5 C9 5.66 9 6.32 9 7 C5.00499382 5.6302836 2.19990508 3.74277578 -1 1 C-0.67 0.67 -0.34 0.34 0 0 Z " fill="#E3642A" transform="translate(643,281)"/>
<path d="M0 0 C0.33 0 0.66 0 1 0 C1 2.31 1 4.62 1 7 C2.98 7 4.96 7 7 7 C5.35 8.32 3.7 9.64 2 11 C0 9 0 9 -0.1953125 6.8359375 C-0.17210937 6.02382813 -0.14890625 5.21171875 -0.125 4.375 C-0.10695313 3.55773437 -0.08890625 2.74046875 -0.0703125 1.8984375 C-0.04710937 1.27195312 -0.02390625 0.64546875 0 0 Z " fill="#4087AB" transform="translate(683,328)"/>
<path d="M0 0 C0.66 0.33 1.32 0.66 2 1 C0.92598892 3.91517292 0.22189824 5.77810176 -2 8 C-2.99 7.67 -3.98 7.34 -5 7 C-3.35 4.69 -1.7 2.38 0 0 Z " fill="#3781A8" transform="translate(729,321)"/>
<path d="M0 0 C0.99 0.33 1.98 0.66 3 1 C0.69 2.65 -1.62 4.3 -4 6 C-4.33 5.34 -4.66 4.68 -5 4 C-3.36587557 2.29159719 -2.13093906 1.06546953 0 0 Z " fill="#A8A265" transform="translate(588,371)"/>
<path d="M0 0 C3.71888239 0.50712033 6.73454239 1.11608215 10 3 C8.02 3.99 8.02 3.99 6 5 C5.566875 4.54625 5.13375 4.0925 4.6875 3.625 C2.89201658 1.79975666 2.89201658 1.79975666 0 0 Z " fill="#E46C3E" transform="translate(560,301)"/>
<path d="M0 0 C1.11375 0.1546875 1.11375 0.1546875 2.25 0.3125 C-0.58430453 3.5667015 -2.43607774 4.8331753 -6.75 5.3125 C-3.42692308 0.38942308 -3.42692308 0.38942308 0 0 Z " fill="#EA8247" transform="translate(600.75,217.6875)"/>
<path d="M0 0 C0.33 0.66 0.66 1.32 1 2 C-0.50663783 5.01327566 -3.03166411 5.61056618 -6 7 C-6 6.01 -6 5.02 -6 4 C-3 1.8125 -3 1.8125 0 0 Z " fill="#E1D463" transform="translate(469,340)"/>
<path d="M0 0 C0 2.62113708 -0.31292445 4.50935112 -1 7 C-2.32 7.33 -3.64 7.66 -5 8 C-2.25 2.25 -2.25 2.25 0 0 Z " fill="#EFE692" transform="translate(481,321)"/>
<path d="M0 0 C0.66 0.33 1.32 0.66 2 1 C2 2.32 2 3.64 2 5 C0.02 5.33 -1.96 5.66 -4 6 C-2.68 4.02 -1.36 2.04 0 0 Z " fill="#176991" transform="translate(733,324)"/>
<path d="M0 0 C0 2 0 2 -2.5 4.625 C-3.325 5.40875 -4.15 6.1925 -5 7 C-5.66 6.67 -6.32 6.34 -7 6 C-6.75 4.125 -6.75 4.125 -6 2 C-3.85331506 0.61504198 -2.56128588 0 0 0 Z " fill="#F0E9A7" transform="translate(483,319)"/>
<path d="M0 0 C0.33 0.99 0.66 1.98 1 3 C-0.40445835 5.2636564 -2.1967913 7.0208685 -4 9 C-4.33 8.01 -4.66 7.02 -5 6 C-3.59554165 3.7363436 -1.8032087 1.9791315 0 0 Z " fill="#4A90B5" transform="translate(727,319)"/>
</svg>
